<svg viewBox="-1 -1 52 52" xmlns="http://www.w3.org/2000/svg">
<defs>
<pattern height="1" id="p0" patternUnits="userSpaceOnUse" width="1" x="0" y="0">
<path d="M0,0 L0,1" stroke="grey" stroke-opacity="0.3" stroke-width="0.05" vectorEffect="non-scaling-stroke"/>
<path d="M0,0 L1,0" stroke="grey" stroke-opacity="0.3" stroke-width="0.05" vectorEffect="non-scaling-stroke"/>
<path d="M0,1 L1,1" stroke="grey" stroke-opacity="0.3" stroke-width="0.05" vectorEffect="non-scaling-stroke"/>
<path d="M1,0 L1,1" stroke="grey" stroke-opacity="0.3" stroke-width="0.05" vectorEffect="non-scaling-stroke"/>
</pattern>
</defs>
<rect fill="url(#p0)" height="50" stroke="black" stroke-width="0.25" width="50" x="0" y="0"/>
<line fill="none" fill-opacity="0.1" stroke="black" stroke-opacity="0.3" stroke-width="0.1" x1="49.82685" x2="49.138" y1="3.2477" y2="1.39765"/>
<line fill="none" fill-opacity="0.1" stroke="black" stroke-opacity="0.3" stroke-width="0.1" x1="49.138" x2="47.80555" y1="1.39765" y2="0.2677"/>
<line fill="none" fill-opacity="0.1" stroke="black" stroke-opacity="0.3" stroke-width="0.1" x1="47.80555" x2="46.39705" y1="0.2677" y2="0.0115"/>
<line fill="none" fill-opacity="0.1" stroke="black" stroke-opacity="0.3" stroke-width="0.1" x1="46.39705" x2="45.87155" y1="0.0115" y2="0.0378"/>
<line fill="none" fill-opacity="0.1" stroke="black" stroke-opacity="0.3" stroke-width="0.1" x1="45.87155" x2="43.6302" y1="0.0378" y2="0.5986"/>
<line fill="none" fill-opacity="0.1" stroke="black" stroke-opacity="0.3" stroke-width="0.1" x1="43.6302" x2="39.3703" y1="0.5986" y2="2.8491"/>
<line fill="none" fill-opacity="0.1" stroke="black" stroke-opacity="0.3" stroke-width="0.1" x1="39.3703" x2="39.35245" y1="2.8491" y2="2.8599"/>
<line fill="none" fill-opacity="0.1" stroke="black" stroke-opacity="0.3" stroke-width="0.1" x1="39.35245" x2="38.1546" y1="2.8599" y2="3.58665"/>
<line fill="none" fill-opacity="0.1" stroke="black" stroke-opacity="0.3" stroke-width="0.1" x1="38.1546" x2="37.0161" y1="3.58665" y2="4.2768"/>
<line fill="none" fill-opacity="0.1" stroke="black" stroke-opacity="0.3" stroke-width="0.1" x1="37.0161" x2="33.2415" y1="4.2768" y2="7.1641"/>
<line fill="none" fill-opacity="0.1" stroke="black" stroke-opacity="0.3" stroke-width="0.1" x1="33.2415" x2="31.86065" y1="7.1641" y2="8.8099"/>
<line fill="none" fill-opacity="0.1" stroke="black" stroke-opacity="0.3" stroke-width="0.1" x1="31.86065" x2="30.62055" y1="8.8099" y2="10.59635"/>
<line fill="none" fill-opacity="0.1" stroke="black" stroke-opacity="0.3" stroke-width="0.1" x1="30.62055" x2="28.6148" y1="10.59635" y2="14.18925"/>
<line fill="none" fill-opacity="0.1" stroke="black" stroke-opacity="0.3" stroke-width="0.1" x1="28.6148" x2="26.86055" y1="14.18925" y2="17.9522"/>
<line fill="none" fill-opacity="0.1" stroke="black" stroke-opacity="0.3" stroke-width="0.1" x1="26.86055" x2="25.74955" y1="17.9522" y2="19.80815"/>
<line fill="none" fill-opacity="0.1" stroke="black" stroke-opacity="0.3" stroke-width="0.1" x1="25.74955" x2="25.82835" y1="19.80815" y2="19.3548"/>
<line fill="none" fill-opacity="0.1" stroke="black" stroke-opacity="0.3" stroke-width="0.1" x1="25.82835" x2="25.961" y1="19.3548" y2="17.96755"/>
<line fill="none" fill-opacity="0.1" stroke="black" stroke-opacity="0.3" stroke-width="0.1" x1="25.961" x2="25.7245" y1="17.96755" y2="17.09035"/>
<line fill="none" fill-opacity="0.1" stroke="black" stroke-opacity="0.3" stroke-width="0.1" x1="25.7245" x2="27.2675" y1="17.09035" y2="13.20045"/>
<line fill="none" fill-opacity="0.1" stroke="black" stroke-opacity="0.3" stroke-width="0.1" x1="27.2675" x2="27.87" y1="13.20045" y2="11.60485"/>
<line fill="none" fill-opacity="0.1" stroke="black" stroke-opacity="0.3" stroke-width="0.1" x1="27.87" x2="27.99805" y1="11.60485" y2="11.2742"/>
<line fill="none" fill-opacity="0.1" stroke="black" stroke-opacity="0.3" stroke-width="0.1" x1="27.99805" x2="28.49655" y1="11.2742" y2="10.1367"/>
<line fill="none" fill-opacity="0.1" stroke="black" stroke-opacity="0.3" stroke-width="0.1" x1="28.49655" x2="28.52215" y1="10.1367" y2="10.08825"/>
<line fill="none" fill-opacity="0.1" stroke="black" stroke-opacity="0.3" stroke-width="0.1" x1="28.52215" x2="28.88785" y1="10.08825" y2="9.1219"/>
<line fill="none" fill-opacity="0.1" stroke="black" stroke-opacity="0.3" stroke-width="0.1" x1="28.88785" x2="28.64975" y1="9.1219" y2="8.43245"/>
<line fill="none" fill-opacity="0.1" stroke="black" stroke-opacity="0.3" stroke-width="0.1" x1="28.64975" x2="28.6476" y1="8.43245" y2="8.43015"/>
<line fill="none" fill-opacity="0.1" stroke="black" stroke-opacity="0.3" stroke-width="0.1" x1="28.6476" x2="28.64635" y1="8.43015" y2="8.4332"/>
<line fill="none" fill-opacity="0.1" stroke="black" stroke-opacity="0.3" stroke-width="0.1" x1="28.64635" x2="28.51185" y1="8.4332" y2="8.81515"/>
<line fill="none" fill-opacity="0.1" stroke="black" stroke-opacity="0.3" stroke-width="0.1" x1="28.51185" x2="28.42615" y1="8.81515" y2="9.07265"/>
<line fill="none" fill-opacity="0.1" stroke="black" stroke-opacity="0.3" stroke-width="0.1" x1="28.42615" x2="26.9867" y1="9.07265" y2="12.8424"/>
<line fill="none" fill-opacity="0.1" stroke="black" stroke-opacity="0.3" stroke-width="0.1" x1="26.9867" x2="26.0965" y1="12.8424" y2="15.09045"/>
<line fill="none" fill-opacity="0.1" stroke="black" stroke-opacity="0.3" stroke-width="0.1" x1="26.0965" x2="25.8883" y1="15.09045" y2="15.8179"/>
<line fill="none" fill-opacity="0.1" stroke="black" stroke-opacity="0.3" stroke-width="0.1" x1="25.8883" x2="25.5964" y1="15.8179" y2="16.72825"/>
<line fill="none" fill-opacity="0.1" stroke="black" stroke-opacity="0.3" stroke-width="0.1" x1="25.5964" x2="25.05495" y1="16.72825" y2="17.19405"/>
<line fill="none" fill-opacity="0.1" stroke="black" stroke-opacity="0.3" stroke-width="0.1" x1="25.05495" x2="24.4329" y1="17.19405" y2="16.78675"/>
<line fill="none" fill-opacity="0.1" stroke="black" stroke-opacity="0.3" stroke-width="0.1" x1="24.4329" x2="24.07695" y1="16.78675" y2="15.86775"/>
<line fill="none" fill-opacity="0.1" stroke="black" stroke-opacity="0.3" stroke-width="0.1" x1="24.07695" x2="23.8865" y1="15.86775" y2="15.2835"/>
<line fill="none" fill-opacity="0.1" stroke="black" stroke-opacity="0.3" stroke-width="0.1" x1="23.8865" x2="23.2799" y1="15.2835" y2="13.8044"/>
<line fill="none" fill-opacity="0.1" stroke="black" stroke-opacity="0.3" stroke-width="0.1" x1="23.2799" x2="22.543" y1="13.8044" y2="11.7191"/>
<line fill="none" fill-opacity="0.1" stroke="black" stroke-opacity="0.3" stroke-width="0.1" x1="22.543" x2="22.47135" y1="11.7191" y2="11.48885"/>
<line fill="none" fill-opacity="0.1" stroke="black" stroke-opacity="0.3" stroke-width="0.1" x1="22.47135" x2="21.2132" y1="11.48885" y2="8.49705"/>
<line fill="none" fill-opacity="0.1" stroke="black" stroke-opacity="0.3" stroke-width="0.1" x1="21.2132" x2="21.21215" y1="8.49705" y2="8.4955"/>
<line fill="none" fill-opacity="0.1" stroke="black" stroke-opacity="0.3" stroke-width="0.1" x1="21.21215" x2="21.11255" y1="8.4955" y2="8.54515"/>
<line fill="none" fill-opacity="0.1" stroke="black" stroke-opacity="0.3" stroke-width="0.1" x1="21.11255" x2="21.113" y1="8.54515" y2="8.5472"/>
<line fill="none" fill-opacity="0.1" stroke="black" stroke-opacity="0.3" stroke-width="0.1" x1="21.113" x2="22.09" y1="8.5472" y2="11.64825"/>
<line fill="none" fill-opacity="0.1" stroke="black" stroke-opacity="0.3" stroke-width="0.1" x1="22.09" x2="22.8542" y1="11.64825" y2="13.5616"/>
<line fill="none" fill-opacity="0.1" stroke="black" stroke-opacity="0.3" stroke-width="0.1" x1="22.8542" x2="24.244" y1="13.5616" y2="17.2307"/>
<line fill="none" fill-opacity="0.1" stroke="black" stroke-opacity="0.3" stroke-width="0.1" x1="24.244" x2="24.1716" y1="17.2307" y2="17.3697"/>
<line fill="none" fill-opacity="0.1" stroke="black" stroke-opacity="0.3" stroke-width="0.1" x1="24.1716" x2="24.0826" y1="17.3697" y2="17.5548"/>
<line fill="none" fill-opacity="0.1" stroke="black" stroke-opacity="0.3" stroke-width="0.1" x1="24.0826" x2="24.06475" y1="17.5548" y2="18.7154"/>
<line fill="none" fill-opacity="0.1" stroke="black" stroke-opacity="0.3" stroke-width="0.1" x1="24.06475" x2="24.1046" y1="18.7154" y2="18.93575"/>
<line fill="none" fill-opacity="0.1" stroke="black" stroke-opacity="0.3" stroke-width="0.1" x1="24.1046" x2="24.15615" y1="18.93575" y2="19.8342"/>
<line fill="none" fill-opacity="0.1" stroke="black" stroke-opacity="0.3" stroke-width="0.1" x1="24.15615" x2="21.02565" y1="19.8342" y2="13.42955"/>
<line fill="none" fill-opacity="0.1" stroke="black" stroke-opacity="0.3" stroke-width="0.1" x1="21.02565" x2="19.39965" y1="13.42955" y2="10.76725"/>
<line fill="none" fill-opacity="0.1" stroke="black" stroke-opacity="0.3" stroke-width="0.1" x1="19.39965" x2="17.5651" y1="10.76725" y2="8.2881"/>
<line fill="none" fill-opacity="0.1" stroke="black" stroke-opacity="0.3" stroke-width="0.1" x1="17.5651" x2="15.22285" y1="8.2881" y2="5.86385"/>
<line fill="none" fill-opacity="0.1" stroke="black" stroke-opacity="0.3" stroke-width="0.1" x1="15.22285" x2="11.6749" y1="5.86385" y2="3.33115"/>
<line fill="none" fill-opacity="0.1" stroke="black" stroke-opacity="0.3" stroke-width="0.1" x1="11.6749" x2="8.47745" y1="3.33115" y2="1.5126"/>
<line fill="none" fill-opacity="0.1" stroke="black" stroke-opacity="0.3" stroke-width="0.1" x1="8.47745" x2="6.81655" y1="1.5126" y2="0.76385"/>
<line fill="none" fill-opacity="0.1" stroke="black" stroke-opacity="0.3" stroke-width="0.1" x1="6.81655" x2="5.0962" y1="0.76385" y2="0.22245"/>
<line fill="none" fill-opacity="0.1" stroke="black" stroke-opacity="0.3" stroke-width="0.1" x1="5.0962" x2="3.20415" y1="0.22245" y2="0.00005"/>
<line fill="none" fill-opacity="0.1" stroke="black" stroke-opacity="0.3" stroke-width="0.1" x1="3.20415" x2="3.17865" y1="0.00005" y2="0"/>
<line fill="none" fill-opacity="0.1" stroke="black" stroke-opacity="0.3" stroke-width="0.1" x1="3.17865" x2="1.3499" y1="0" y2="0.56845"/>
<line fill="none" fill-opacity="0.1" stroke="black" stroke-opacity="0.3" stroke-width="0.1" x1="1.3499" x2="0.5021" y1="0.56845" y2="2.14165"/>
<line fill="none" fill-opacity="0.1" stroke="black" stroke-opacity="0.3" stroke-width="0.1" x1="0.5021" x2="0.0089" y1="2.14165" y2="5.09435"/>
<line fill="none" fill-opacity="0.1" stroke="black" stroke-opacity="0.3" stroke-width="0.1" x1="0.0089" x2="0.1562" y1="5.09435" y2="7.33375"/>
<line fill="none" fill-opacity="0.1" stroke="black" stroke-opacity="0.3" stroke-width="0.1" x1="0.1562" x2="0.83965" y1="7.33375" y2="8.8626"/>
<line fill="none" fill-opacity="0.1" stroke="black" stroke-opacity="0.3" stroke-width="0.1" x1="0.83965" x2="1.2424" y1="8.8626" y2="9.59095"/>
<line fill="none" fill-opacity="0.1" stroke="black" stroke-opacity="0.3" stroke-width="0.1" x1="1.2424" x2="1.7031" y1="9.59095" y2="10.89935"/>
<line fill="none" fill-opacity="0.1" stroke="black" stroke-opacity="0.3" stroke-width="0.1" x1="1.7031" x2="2.3969" y1="10.89935" y2="15.0483"/>
<line fill="none" fill-opacity="0.1" stroke="black" stroke-opacity="0.3" stroke-width="0.1" x1="2.3969" x2="2.87695" y1="15.0483" y2="18.2263"/>
<line fill="none" fill-opacity="0.1" stroke="black" stroke-opacity="0.3" stroke-width="0.1" x1="2.87695" x2="3.2113" y1="18.2263" y2="19.56055"/>
<line fill="none" fill-opacity="0.1" stroke="black" stroke-opacity="0.3" stroke-width="0.1" x1="3.2113" x2="3.74285" y1="19.56055" y2="20.80495"/>
<line fill="none" fill-opacity="0.1" stroke="black" stroke-opacity="0.3" stroke-width="0.1" x1="3.74285" x2="4.8495" y1="20.80495" y2="21.95075"/>
<line fill="none" fill-opacity="0.1" stroke="black" stroke-opacity="0.3" stroke-width="0.1" x1="4.8495" x2="5.79095" y1="21.95075" y2="22.39395"/>
<line fill="none" fill-opacity="0.1" stroke="black" stroke-opacity="0.3" stroke-width="0.1" x1="5.79095" x2="6.7862" y1="22.39395" y2="22.64935"/>
<line fill="none" fill-opacity="0.1" stroke="black" stroke-opacity="0.3" stroke-width="0.1" x1="6.7862" x2="8.53045" y1="22.64935" y2="22.85515"/>
<line fill="none" fill-opacity="0.1" stroke="black" stroke-opacity="0.3" stroke-width="0.1" x1="8.53045" x2="9.4045" y1="22.85515" y2="22.91305"/>
<line fill="none" fill-opacity="0.1" stroke="black" stroke-opacity="0.3" stroke-width="0.1" x1="9.4045" x2="12.49595" y1="22.91305" y2="23.24815"/>
<line fill="none" fill-opacity="0.1" stroke="black" stroke-opacity="0.3" stroke-width="0.1" x1="12.49595" x2="12.61245" y1="23.24815" y2="23.28815"/>
<line fill="none" fill-opacity="0.1" stroke="black" stroke-opacity="0.3" stroke-width="0.1" x1="12.61245" x2="11.3749" y1="23.28815" y2="24.18005"/>
<line fill="none" fill-opacity="0.1" stroke="black" stroke-opacity="0.3" stroke-width="0.1" x1="11.3749" x2="9.22565" y1="24.18005" y2="25.76575"/>
<line fill="none" fill-opacity="0.1" stroke="black" stroke-opacity="0.3" stroke-width="0.1" x1="9.22565" x2="6.0914" y1="25.76575" y2="28.9244"/>
<line fill="none" fill-opacity="0.1" stroke="black" stroke-opacity="0.3" stroke-width="0.1" x1="6.0914" x2="5.3761" y1="28.9244" y2="30.0774"/>
<line fill="none" fill-opacity="0.1" stroke="black" stroke-opacity="0.3" stroke-width="0.1" x1="5.3761" x2="5.37585" y1="30.0774" y2="30.07855"/>
<line fill="none" fill-opacity="0.1" stroke="black" stroke-opacity="0.3" stroke-width="0.1" x1="5.37585" x2="5.5023" y1="30.07855" y2="32.84595"/>
<line fill="none" fill-opacity="0.1" stroke="black" stroke-opacity="0.3" stroke-width="0.1" x1="5.5023" x2="6.7182" y1="32.84595" y2="39.8296"/>
<line fill="none" fill-opacity="0.1" stroke="black" stroke-opacity="0.3" stroke-width="0.1" x1="6.7182" x2="6.71985" y1="39.8296" y2="39.83705"/>
<line fill="none" fill-opacity="0.1" stroke="black" stroke-opacity="0.3" stroke-width="0.1" x1="6.71985" x2="8.06615" y1="39.83705" y2="45.1023"/>
<line fill="none" fill-opacity="0.1" stroke="black" stroke-opacity="0.3" stroke-width="0.1" x1="8.06615" x2="9.2325" y1="45.1023" y2="47.76375"/>
<line fill="none" fill-opacity="0.1" stroke="black" stroke-opacity="0.3" stroke-width="0.1" x1="9.2325" x2="10.30685" y1="47.76375" y2="49.085"/>
<line fill="none" fill-opacity="0.1" stroke="black" stroke-opacity="0.3" stroke-width="0.1" x1="10.30685" x2="11.61615" y1="49.085" y2="49.902"/>
<line fill="none" fill-opacity="0.1" stroke="black" stroke-opacity="0.3" stroke-width="0.1" x1="11.61615" x2="12.24205" y1="49.902" y2="49.99915"/>
<line fill="none" fill-opacity="0.1" stroke="black" stroke-opacity="0.3" stroke-width="0.1" x1="12.24205" x2="12.5477" y1="49.99915" y2="49.9828"/>
<line fill="none" fill-opacity="0.1" stroke="black" stroke-opacity="0.3" stroke-width="0.1" x1="12.5477" x2="14.4127" y1="49.9828" y2="49.2579"/>
<line fill="none" fill-opacity="0.1" stroke="black" stroke-opacity="0.3" stroke-width="0.1" x1="14.4127" x2="16.3051" y1="49.2579" y2="47.53595"/>
<line fill="none" fill-opacity="0.1" stroke="black" stroke-opacity="0.3" stroke-width="0.1" x1="16.3051" x2="18.5237" y1="47.53595" y2="43.89675"/>
<line fill="none" fill-opacity="0.1" stroke="black" stroke-opacity="0.3" stroke-width="0.1" x1="18.5237" x2="20.11025" y1="43.89675" y2="40.0549"/>
<line fill="none" fill-opacity="0.1" stroke="black" stroke-opacity="0.3" stroke-width="0.1" x1="20.11025" x2="21.20515" y1="40.0549" y2="36.37055"/>
<line fill="none" fill-opacity="0.1" stroke="black" stroke-opacity="0.3" stroke-width="0.1" x1="21.20515" x2="21.6133" y1="36.37055" y2="34.6663"/>
<line fill="none" fill-opacity="0.1" stroke="black" stroke-opacity="0.3" stroke-width="0.1" x1="21.6133" x2="22.3165" y1="34.6663" y2="31.8314"/>
<line fill="none" fill-opacity="0.1" stroke="black" stroke-opacity="0.3" stroke-width="0.1" x1="22.3165" x2="23.6924" y1="31.8314" y2="28.1923"/>
<line fill="none" fill-opacity="0.1" stroke="black" stroke-opacity="0.3" stroke-width="0.1" x1="23.6924" x2="23.8278" y1="28.1923" y2="30.2659"/>
<line fill="none" fill-opacity="0.1" stroke="black" stroke-opacity="0.3" stroke-width="0.1" x1="23.8278" x2="23.8259" y1="30.2659" y2="30.52435"/>
<line fill="none" fill-opacity="0.1" stroke="black" stroke-opacity="0.3" stroke-width="0.1" x1="23.8259" x2="23.81565" y1="30.52435" y2="31.09945"/>
<line fill="none" fill-opacity="0.1" stroke="black" stroke-opacity="0.3" stroke-width="0.1" x1="23.81565" x2="23.8298" y1="31.09945" y2="32.96705"/>
<line fill="none" fill-opacity="0.1" stroke="black" stroke-opacity="0.3" stroke-width="0.1" x1="23.8298" x2="24.0553" y1="32.96705" y2="34.2136"/>
<line fill="none" fill-opacity="0.1" stroke="black" stroke-opacity="0.3" stroke-width="0.1" x1="24.0553" x2="24.55025" y1="34.2136" y2="34.84235"/>
<line fill="none" fill-opacity="0.1" stroke="black" stroke-opacity="0.3" stroke-width="0.1" x1="24.55025" x2="24.97455" y1="34.84235" y2="34.94345"/>
<line fill="none" fill-opacity="0.1" stroke="black" stroke-opacity="0.3" stroke-width="0.1" x1="24.97455" x2="25.44015" y1="34.94345" y2="34.83835"/>
<line fill="none" fill-opacity="0.1" stroke="black" stroke-opacity="0.3" stroke-width="0.1" x1="25.44015" x2="26.00365" y1="34.83835" y2="34.05935"/>
<line fill="none" fill-opacity="0.1" stroke="black" stroke-opacity="0.3" stroke-width="0.1" x1="26.00365" x2="26.1682" y1="34.05935" y2="32.6168"/>
<line fill="none" fill-opacity="0.1" stroke="black" stroke-opacity="0.3" stroke-width="0.1" x1="26.1682" x2="26.14735" y1="32.6168" y2="31.33965"/>
<line fill="none" fill-opacity="0.1" stroke="black" stroke-opacity="0.3" stroke-width="0.1" x1="26.14735" x2="26.129" y1="31.33965" y2="29.9174"/>
<line fill="none" fill-opacity="0.1" stroke="black" stroke-opacity="0.3" stroke-width="0.1" x1="26.129" x2="26.40645" y1="29.9174" y2="28.181"/>
<line fill="none" fill-opacity="0.1" stroke="black" stroke-opacity="0.3" stroke-width="0.1" x1="26.40645" x2="27.9859" y1="28.181" y2="33.23115"/>
<line fill="none" fill-opacity="0.1" stroke="black" stroke-opacity="0.3" stroke-width="0.1" x1="27.9859" x2="28.0043" y1="33.23115" y2="33.2955"/>
<line fill="none" fill-opacity="0.1" stroke="black" stroke-opacity="0.3" stroke-width="0.1" x1="28.0043" x2="28.23625" y1="33.2955" y2="34.11555"/>
<line fill="none" fill-opacity="0.1" stroke="black" stroke-opacity="0.3" stroke-width="0.1" x1="28.23625" x2="29.65105" y1="34.11555" y2="38.9344"/>
<line fill="none" fill-opacity="0.1" stroke="black" stroke-opacity="0.3" stroke-width="0.1" x1="29.65105" x2="31.75445" y1="38.9344" y2="44.41885"/>
<line fill="none" fill-opacity="0.1" stroke="black" stroke-opacity="0.3" stroke-width="0.1" x1="31.75445" x2="32.86665" y1="44.41885" y2="46.4131"/>
<line fill="none" fill-opacity="0.1" stroke="black" stroke-opacity="0.3" stroke-width="0.1" x1="32.86665" x2="34.2393" y1="46.4131" y2="48.18005"/>
<line fill="none" fill-opacity="0.1" stroke="black" stroke-opacity="0.3" stroke-width="0.1" x1="34.2393" x2="35.9365" y1="48.18005" y2="49.4489"/>
<line fill="none" fill-opacity="0.1" stroke="black" stroke-opacity="0.3" stroke-width="0.1" x1="35.9365" x2="37.5567" y1="49.4489" y2="49.97975"/>
<line fill="none" fill-opacity="0.1" stroke="black" stroke-opacity="0.3" stroke-width="0.1" x1="37.5567" x2="37.87855" y1="49.97975" y2="50"/>
<line fill="none" fill-opacity="0.1" stroke="black" stroke-opacity="0.3" stroke-width="0.1" x1="37.87855" x2="38.8062" y1="50" y2="49.7998"/>
<line fill="none" fill-opacity="0.1" stroke="black" stroke-opacity="0.3" stroke-width="0.1" x1="38.8062" x2="40.2799" y1="49.7998" y2="48.46125"/>
<line fill="none" fill-opacity="0.1" stroke="black" stroke-opacity="0.3" stroke-width="0.1" x1="40.2799" x2="41.2693" y1="48.46125" y2="46.6647"/>
<line fill="none" fill-opacity="0.1" stroke="black" stroke-opacity="0.3" stroke-width="0.1" x1="41.2693" x2="42.57145" y1="46.6647" y2="42.8421"/>
<line fill="none" fill-opacity="0.1" stroke="black" stroke-opacity="0.3" stroke-width="0.1" x1="42.57145" x2="43.5805" y1="42.8421" y2="38.70555"/>
<line fill="none" fill-opacity="0.1" stroke="black" stroke-opacity="0.3" stroke-width="0.1" x1="43.5805" x2="44.59855" y1="38.70555" y2="30.0732"/>
<line fill="none" fill-opacity="0.1" stroke="black" stroke-opacity="0.3" stroke-width="0.1" x1="44.59855" x2="44.59855" y1="30.0732" y2="30.07245"/>
<line fill="none" fill-opacity="0.1" stroke="black" stroke-opacity="0.3" stroke-width="0.1" x1="44.59855" x2="44.5982" y1="30.07245" y2="30.0718"/>
<line fill="none" fill-opacity="0.1" stroke="black" stroke-opacity="0.3" stroke-width="0.1" x1="44.5982" x2="43.5093" y1="30.0718" y2="28.40525"/>
<line fill="none" fill-opacity="0.1" stroke="black" stroke-opacity="0.3" stroke-width="0.1" x1="43.5093" x2="42.2097" y1="28.40525" y2="26.94555"/>
<line fill="none" fill-opacity="0.1" stroke="black" stroke-opacity="0.3" stroke-width="0.1" x1="42.2097" x2="40.47065" y1="26.94555" y2="25.47965"/>
<line fill="none" fill-opacity="0.1" stroke="black" stroke-opacity="0.3" stroke-width="0.1" x1="40.47065" x2="39.60105" y1="25.47965" y2="24.8887"/>
<line fill="none" fill-opacity="0.1" stroke="black" stroke-opacity="0.3" stroke-width="0.1" x1="39.60105" x2="37.33685" y1="24.8887" y2="23.13295"/>
<line fill="none" fill-opacity="0.1" stroke="black" stroke-opacity="0.3" stroke-width="0.1" x1="37.33685" x2="38.8524" y1="23.13295" y2="23.0442"/>
<line fill="none" fill-opacity="0.1" stroke="black" stroke-opacity="0.3" stroke-width="0.1" x1="38.8524" x2="39.92005" y1="23.0442" y2="22.987"/>
<line fill="none" fill-opacity="0.1" stroke="black" stroke-opacity="0.3" stroke-width="0.1" x1="39.92005" x2="43.72465" y1="22.987" y2="22.49415"/>
<line fill="none" fill-opacity="0.1" stroke="black" stroke-opacity="0.3" stroke-width="0.1" x1="43.72465" x2="45.6072" y1="22.49415" y2="21.6064"/>
<line fill="none" fill-opacity="0.1" stroke="black" stroke-opacity="0.3" stroke-width="0.1" x1="45.6072" x2="46.57195" y1="21.6064" y2="20.04765"/>
<line fill="none" fill-opacity="0.1" stroke="black" stroke-opacity="0.3" stroke-width="0.1" x1="46.57195" x2="47.195" y1="20.04765" y2="17.6213"/>
<line fill="none" fill-opacity="0.1" stroke="black" stroke-opacity="0.3" stroke-width="0.1" x1="47.195" x2="47.2821" y1="17.6213" y2="17.1565"/>
<line fill="none" fill-opacity="0.1" stroke="black" stroke-opacity="0.3" stroke-width="0.1" x1="47.2821" x2="47.527" y1="17.1565" y2="15.80095"/>
<line fill="none" fill-opacity="0.1" stroke="black" stroke-opacity="0.3" stroke-width="0.1" x1="47.527" x2="47.7561" y1="15.80095" y2="14.0979"/>
<line fill="none" fill-opacity="0.1" stroke="black" stroke-opacity="0.3" stroke-width="0.1" x1="47.7561" x2="47.8752" y1="14.0979" y2="13.1519"/>
<line fill="none" fill-opacity="0.1" stroke="black" stroke-opacity="0.3" stroke-width="0.1" x1="47.8752" x2="48.7627" y1="13.1519" y2="9.4119"/>
<line fill="none" fill-opacity="0.1" stroke="black" stroke-opacity="0.3" stroke-width="0.1" x1="48.7627" x2="49.0835" y1="9.4119" y2="8.7105"/>
<line fill="none" fill-opacity="0.1" stroke="black" stroke-opacity="0.3" stroke-width="0.1" x1="49.0835" x2="49.6704" y1="8.7105" y2="7.3282"/>
<line fill="none" fill-opacity="0.1" stroke="black" stroke-opacity="0.3" stroke-width="0.1" x1="49.6704" x2="49.9989" y1="7.3282" y2="5.50695"/>
<line fill="none" fill-opacity="0.1" stroke="black" stroke-opacity="0.3" stroke-width="0.1" x1="49.9989" x2="49.82685" y1="5.50695" y2="3.2477"/>
<rect fill="darkblue" fill-opacity="0.1" height="2" stroke="darkblue" stroke-opacity="1" stroke-width="0.2" width="2" x="0" y="0"/>
<rect fill="darkblue" fill-opacity="0.1" height="2" stroke="darkblue" stroke-opacity="1" stroke-width="0.2" width="2" x="2" y="0"/>
<rect fill="darkblue" fill-opacity="0.1" height="2" stroke="darkblue" stroke-opacity="1" stroke-width="0.2" width="2" x="4" y="0"/>
<rect fill="darkblue" fill-opacity="0.1" height="2" stroke="darkblue" stroke-opacity="1" stroke-width="0.2" width="2" x="6" y="0"/>
<rect fill="darkblue" fill-opacity="0.1" height="2" stroke="darkblue" stroke-opacity="1" stroke-width="0.2" width="2" x="8" y="0"/>
<rect fill="darkblue" fill-opacity="0.1" height="2" stroke="darkblue" stroke-opacity="1" stroke-width="0.2" width="2" x="40" y="0"/>
<rect fill="darkblue" fill-opacity="0.1" height="2" stroke="darkblue" stroke-opacity="1" stroke-width="0.2" width="2" x="42" y="0"/>
<rect fill="darkblue" fill-opacity="0.1" height="2" stroke="darkblue" stroke-opacity="1" stroke-width="0.2" width="2" x="44" y="0"/>
<rect fill="darkblue" fill-opacity="0.1" height="2" stroke="darkblue" stroke-opacity="1" stroke-width="0.2" width="2" x="46" y="0"/>
<rect fill="darkblue" fill-opacity="0.1" height="2" stroke="darkblue" stroke-opacity="1" stroke-width="0.2" width="2" x="48" y="0"/>
<rect fill="darkblue" fill-opacity="0.1" height="2" stroke="darkblue" stroke-opacity="1" stroke-width="0.2" width="2" x="0" y="2"/>
<rect fill="darkblue" fill-opacity="0.1" height="2" stroke="darkblue" stroke-opacity="1" stroke-width="0.2" width="2" x="8" y="2"/>
<rect fill="darkblue" fill-opacity="0.1" height="2" stroke="darkblue" stroke-opacity="1" stroke-width="0.2" width="2" x="10" y="2"/>
<rect fill="darkblue" fill-opacity="0.1" height="2" stroke="darkblue" stroke-opacity="1" stroke-width="0.2" width="2" x="12" y="2"/>
<rect fill="darkblue" fill-opacity="0.1" height="2" stroke="darkblue" stroke-opacity="1" stroke-width="0.2" width="2" x="36" y="2"/>
<rect fill="darkblue" fill-opacity="0.1" height="2" stroke="darkblue" stroke-opacity="1" stroke-width="0.2" width="2" x="38" y="2"/>
<rect fill="darkblue" fill-opacity="0.1" height="2" stroke="darkblue" stroke-opacity="1" stroke-width="0.2" width="2" x="40" y="2"/>
<rect fill="darkblue" fill-opacity="0.1" height="2" stroke="darkblue" stroke-opacity="1" stroke-width="0.2" width="2" x="48" y="2"/>
<rect fill="darkblue" fill-opacity="0.1" height="2" stroke="darkblue" stroke-opacity="1" stroke-width="0.2" width="2" x="0" y="4"/>
<rect fill="darkblue" fill-opacity="0.1" height="2" stroke="darkblue" stroke-opacity="1" stroke-width="0.2" width="2" x="12" y="4"/>
<rect fill="darkblue" fill-opacity="0.1" height="2" stroke="darkblue" stroke-opacity="1" stroke-width="0.2" width="2" x="14" y="4"/>
<rect fill="darkblue" fill-opacity="0.1" height="2" stroke="darkblue" stroke-opacity="1" stroke-width="0.2" width="2" x="34" y="4"/>
<rect fill="darkblue" fill-opacity="0.1" height="2" stroke="darkblue" stroke-opacity="1" stroke-width="0.2" width="2" x="36" y="4"/>
<rect fill="darkblue" fill-opacity="0.1" height="2" stroke="darkblue" stroke-opacity="1" stroke-width="0.2" width="2" x="48" y="4"/>
<rect fill="darkblue" fill-opacity="0.1" height="2" stroke="darkblue" stroke-opacity="1" stroke-width="0.2" width="2" x="0" y="6"/>
<rect fill="darkblue" fill-opacity="0.1" height="2" stroke="darkblue" stroke-opacity="1" stroke-width="0.2" width="2" x="14" y="6"/>
<rect fill="darkblue" fill-opacity="0.1" height="2" stroke="darkblue" stroke-opacity="1" stroke-width="0.2" width="2" x="16" y="6"/>
<rect fill="darkblue" fill-opacity="0.1" height="2" stroke="darkblue" stroke-opacity="1" stroke-width="0.2" width="2" x="32" y="6"/>
<rect fill="darkblue" fill-opacity="0.1" height="2" stroke="darkblue" stroke-opacity="1" stroke-width="0.2" width="2" x="34" y="6"/>
<rect fill="darkblue" fill-opacity="0.1" height="2" stroke="darkblue" stroke-opacity="1" stroke-width="0.2" width="2" x="48" y="6"/>
<rect fill="darkblue" fill-opacity="0.1" height="2" stroke="darkblue" stroke-opacity="1" stroke-width="0.2" width="2" x="0" y="8"/>
<rect fill="darkblue" fill-opacity="0.1" height="2" stroke="darkblue" stroke-opacity="1" stroke-width="0.2" width="2" x="16" y="8"/>
<rect fill="darkblue" fill-opacity="0.1" height="2" stroke="darkblue" stroke-opacity="1" stroke-width="0.2" width="2" x="18" y="8"/>
<rect fill="darkblue" fill-opacity="0.1" height="2" stroke="darkblue" stroke-opacity="1" stroke-width="0.2" width="2" x="20" y="8"/>
<rect fill="darkblue" fill-opacity="0.1" height="2" stroke="darkblue" stroke-opacity="1" stroke-width="0.2" width="2" x="28" y="8"/>
<rect fill="darkblue" fill-opacity="0.1" height="2" stroke="darkblue" stroke-opacity="1" stroke-width="0.2" width="2" x="30" y="8"/>
<rect fill="darkblue" fill-opacity="0.1" height="2" stroke="darkblue" stroke-opacity="1" stroke-width="0.2" width="2" x="32" y="8"/>
<rect fill="darkblue" fill-opacity="0.1" height="2" stroke="darkblue" stroke-opacity="1" stroke-width="0.2" width="2" x="48" y="8"/>
<rect fill="darkblue" fill-opacity="0.1" height="2" stroke="darkblue" stroke-opacity="1" stroke-width="0.2" width="2" x="0" y="10"/>
<rect fill="darkblue" fill-opacity="0.1" height="2" stroke="darkblue" stroke-opacity="1" stroke-width="0.2" width="2" x="18" y="10"/>
<rect fill="darkblue" fill-opacity="0.1" height="2" stroke="darkblue" stroke-opacity="1" stroke-width="0.2" width="2" x="20" y="10"/>
<rect fill="darkblue" fill-opacity="0.1" height="2" stroke="darkblue" stroke-opacity="1" stroke-width="0.2" width="2" x="22" y="10"/>
<rect fill="darkblue" fill-opacity="0.1" height="2" stroke="darkblue" stroke-opacity="1" stroke-width="0.2" width="2" x="26" y="10"/>
<rect fill="darkblue" fill-opacity="0.1" height="2" stroke="darkblue" stroke-opacity="1" stroke-width="0.2" width="2" x="28" y="10"/>
<rect fill="darkblue" fill-opacity="0.1" height="2" stroke="darkblue" stroke-opacity="1" stroke-width="0.2" width="2" x="30" y="10"/>
<rect fill="darkblue" fill-opacity="0.1" height="2" stroke="darkblue" stroke-opacity="1" stroke-width="0.2" width="2" x="48" y="10"/>
<rect fill="darkblue" fill-opacity="0.1" height="2" stroke="darkblue" stroke-opacity="1" stroke-width="0.2" width="2" x="0" y="12"/>
<rect fill="darkblue" fill-opacity="0.1" height="2" stroke="darkblue" stroke-opacity="1" stroke-width="0.2" width="2" x="2" y="12"/>
<rect fill="darkblue" fill-opacity="0.1" height="2" stroke="darkblue" stroke-opacity="1" stroke-width="0.2" width="2" x="20" y="12"/>
<rect fill="darkblue" fill-opacity="0.1" height="2" stroke="darkblue" stroke-opacity="1" stroke-width="0.2" width="2" x="22" y="12"/>
<rect fill="darkblue" fill-opacity="0.1" height="2" stroke="darkblue" stroke-opacity="1" stroke-width="0.2" width="2" x="26" y="12"/>
<rect fill="darkblue" fill-opacity="0.1" height="2" stroke="darkblue" stroke-opacity="1" stroke-width="0.2" width="2" x="28" y="12"/>
<rect fill="darkblue" fill-opacity="0.1" height="2" stroke="darkblue" stroke-opacity="1" stroke-width="0.2" width="2" x="46" y="12"/>
<rect fill="darkblue" fill-opacity="0.1" height="2" stroke="darkblue" stroke-opacity="1" stroke-width="0.2" width="2" x="48" y="12"/>
<rect fill="darkblue" fill-opacity="0.1" height="2" stroke="darkblue" stroke-opacity="1" stroke-width="0.2" width="2" x="2" y="14"/>
<rect fill="darkblue" fill-opacity="0.1" height="2" stroke="darkblue" stroke-opacity="1" stroke-width="0.2" width="2" x="20" y="14"/>
<rect fill="darkblue" fill-opacity="0.1" height="2" stroke="darkblue" stroke-opacity="1" stroke-width="0.2" width="2" x="22" y="14"/>
<rect fill="darkblue" fill-opacity="0.1" height="2" stroke="darkblue" stroke-opacity="1" stroke-width="0.2" width="2" x="24" y="14"/>
<rect fill="darkblue" fill-opacity="0.1" height="2" stroke="darkblue" stroke-opacity="1" stroke-width="0.2" width="2" x="26" y="14"/>
<rect fill="darkblue" fill-opacity="0.1" height="2" stroke="darkblue" stroke-opacity="1" stroke-width="0.2" width="2" x="28" y="14"/>
<rect fill="darkblue" fill-opacity="0.1" height="2" stroke="darkblue" stroke-opacity="1" stroke-width="0.2" width="2" x="46" y="14"/>
<rect fill="darkblue" fill-opacity="0.1" height="2" stroke="darkblue" stroke-opacity="1" stroke-width="0.2" width="2" x="2" y="16"/>
<rect fill="darkblue" fill-opacity="0.1" height="2" stroke="darkblue" stroke-opacity="1" stroke-width="0.2" width="2" x="22" y="16"/>
<rect fill="darkblue" fill-opacity="0.1" height="2" stroke="darkblue" stroke-opacity="1" stroke-width="0.2" width="2" x="24" y="16"/>
<rect fill="darkblue" fill-opacity="0.1" height="2" stroke="darkblue" stroke-opacity="1" stroke-width="0.2" width="2" x="26" y="16"/>
<rect fill="darkblue" fill-opacity="0.1" height="2" stroke="darkblue" stroke-opacity="1" stroke-width="0.2" width="2" x="46" y="16"/>
<rect fill="darkblue" fill-opacity="0.1" height="2" stroke="darkblue" stroke-opacity="1" stroke-width="0.2" width="2" x="2" y="18"/>
<rect fill="darkblue" fill-opacity="0.1" height="2" stroke="darkblue" stroke-opacity="1" stroke-width="0.2" width="2" x="22" y="18"/>
<rect fill="darkblue" fill-opacity="0.1" height="2" stroke="darkblue" stroke-opacity="1" stroke-width="0.2" width="2" x="24" y="18"/>
<rect fill="darkblue" fill-opacity="0.1" height="2" stroke="darkblue" stroke-opacity="1" stroke-width="0.2" width="2" x="26" y="18"/>
<rect fill="darkblue" fill-opacity="0.1" height="2" stroke="darkblue" stroke-opacity="1" stroke-width="0.2" width="2" x="46" y="18"/>
<rect fill="darkblue" fill-opacity="0.1" height="2" stroke="darkblue" stroke-opacity="1" stroke-width="0.2" width="2" x="2" y="20"/>
<rect fill="darkblue" fill-opacity="0.1" height="2" stroke="darkblue" stroke-opacity="1" stroke-width="0.2" width="2" x="4" y="20"/>
<rect fill="darkblue" fill-opacity="0.1" height="2" stroke="darkblue" stroke-opacity="1" stroke-width="0.2" width="2" x="44" y="20"/>
<rect fill="darkblue" fill-opacity="0.1" height="2" stroke="darkblue" stroke-opacity="1" stroke-width="0.2" width="2" x="46" y="20"/>
<rect fill="darkblue" fill-opacity="0.1" height="2" stroke="darkblue" stroke-opacity="1" stroke-width="0.2" width="2" x="4" y="22"/>
<rect fill="darkblue" fill-opacity="0.1" height="2" stroke="darkblue" stroke-opacity="1" stroke-width="0.2" width="2" x="6" y="22"/>
<rect fill="darkblue" fill-opacity="0.1" height="2" stroke="darkblue" stroke-opacity="1" stroke-width="0.2" width="2" x="8" y="22"/>
<rect fill="darkblue" fill-opacity="0.1" height="2" stroke="darkblue" stroke-opacity="1" stroke-width="0.2" width="2" x="10" y="22"/>
<rect fill="darkblue" fill-opacity="0.1" height="2" stroke="darkblue" stroke-opacity="1" stroke-width="0.2" width="2" x="12" y="22"/>
<rect fill="darkblue" fill-opacity="0.1" height="2" stroke="darkblue" stroke-opacity="1" stroke-width="0.2" width="2" x="36" y="22"/>
<rect fill="darkblue" fill-opacity="0.1" height="2" stroke="darkblue" stroke-opacity="1" stroke-width="0.2" width="2" x="38" y="22"/>
<rect fill="darkblue" fill-opacity="0.1" height="2" stroke="darkblue" stroke-opacity="1" stroke-width="0.2" width="2" x="40" y="22"/>
<rect fill="darkblue" fill-opacity="0.1" height="2" stroke="darkblue" stroke-opacity="1" stroke-width="0.2" width="2" x="42" y="22"/>
<rect fill="darkblue" fill-opacity="0.1" height="2" stroke="darkblue" stroke-opacity="1" stroke-width="0.2" width="2" x="44" y="22"/>
<rect fill="darkblue" fill-opacity="0.1" height="2" stroke="darkblue" stroke-opacity="1" stroke-width="0.2" width="2" x="8" y="24"/>
<rect fill="darkblue" fill-opacity="0.1" height="2" stroke="darkblue" stroke-opacity="1" stroke-width="0.2" width="2" x="10" y="24"/>
<rect fill="darkblue" fill-opacity="0.1" height="2" stroke="darkblue" stroke-opacity="1" stroke-width="0.2" width="2" x="38" y="24"/>
<rect fill="darkblue" fill-opacity="0.1" height="2" stroke="darkblue" stroke-opacity="1" stroke-width="0.2" width="2" x="40" y="24"/>
<rect fill="darkblue" fill-opacity="0.1" height="2" stroke="darkblue" stroke-opacity="1" stroke-width="0.2" width="2" x="6" y="26"/>
<rect fill="darkblue" fill-opacity="0.1" height="2" stroke="darkblue" stroke-opacity="1" stroke-width="0.2" width="2" x="8" y="26"/>
<rect fill="darkblue" fill-opacity="0.1" height="2" stroke="darkblue" stroke-opacity="1" stroke-width="0.2" width="2" x="40" y="26"/>
<rect fill="darkblue" fill-opacity="0.1" height="2" stroke="darkblue" stroke-opacity="1" stroke-width="0.2" width="2" x="42" y="26"/>
<rect fill="darkblue" fill-opacity="0.1" height="2" stroke="darkblue" stroke-opacity="1" stroke-width="0.2" width="2" x="4" y="28"/>
<rect fill="darkblue" fill-opacity="0.1" height="2" stroke="darkblue" stroke-opacity="1" stroke-width="0.2" width="2" x="6" y="28"/>
<rect fill="darkblue" fill-opacity="0.1" height="2" stroke="darkblue" stroke-opacity="1" stroke-width="0.2" width="2" x="22" y="28"/>
<rect fill="darkblue" fill-opacity="0.1" height="2" stroke="darkblue" stroke-opacity="1" stroke-width="0.2" width="2" x="26" y="28"/>
<rect fill="darkblue" fill-opacity="0.1" height="2" stroke="darkblue" stroke-opacity="1" stroke-width="0.2" width="2" x="42" y="28"/>
<rect fill="darkblue" fill-opacity="0.1" height="2" stroke="darkblue" stroke-opacity="1" stroke-width="0.2" width="2" x="44" y="28"/>
<rect fill="darkblue" fill-opacity="0.1" height="2" stroke="darkblue" stroke-opacity="1" stroke-width="0.2" width="2" x="4" y="30"/>
<rect fill="darkblue" fill-opacity="0.1" height="2" stroke="darkblue" stroke-opacity="1" stroke-width="0.2" width="2" x="22" y="30"/>
<rect fill="darkblue" fill-opacity="0.1" height="2" stroke="darkblue" stroke-opacity="1" stroke-width="0.2" width="2" x="26" y="30"/>
<rect fill="darkblue" fill-opacity="0.1" height="2" stroke="darkblue" stroke-opacity="1" stroke-width="0.2" width="2" x="44" y="30"/>
<rect fill="darkblue" fill-opacity="0.1" height="2" stroke="darkblue" stroke-opacity="1" stroke-width="0.2" width="2" x="4" y="32"/>
<rect fill="darkblue" fill-opacity="0.1" height="2" stroke="darkblue" stroke-opacity="1" stroke-width="0.2" width="2" x="20" y="32"/>
<rect fill="darkblue" fill-opacity="0.1" height="2" stroke="darkblue" stroke-opacity="1" stroke-width="0.2" width="2" x="22" y="32"/>
<rect fill="darkblue" fill-opacity="0.1" height="2" stroke="darkblue" stroke-opacity="1" stroke-width="0.2" width="2" x="24" y="32"/>
<rect fill="darkblue" fill-opacity="0.1" height="2" stroke="darkblue" stroke-opacity="1" stroke-width="0.2" width="2" x="26" y="32"/>
<rect fill="darkblue" fill-opacity="0.1" height="2" stroke="darkblue" stroke-opacity="1" stroke-width="0.2" width="2" x="28" y="32"/>
<rect fill="darkblue" fill-opacity="0.1" height="2" stroke="darkblue" stroke-opacity="1" stroke-width="0.2" width="2" x="44" y="32"/>
<rect fill="darkblue" fill-opacity="0.1" height="2" stroke="darkblue" stroke-opacity="1" stroke-width="0.2" width="2" x="4" y="34"/>
<rect fill="darkblue" fill-opacity="0.1" height="2" stroke="darkblue" stroke-opacity="1" stroke-width="0.2" width="2" x="6" y="34"/>
<rect fill="darkblue" fill-opacity="0.1" height="2" stroke="darkblue" stroke-opacity="1" stroke-width="0.2" width="2" x="20" y="34"/>
<rect fill="darkblue" fill-opacity="0.1" height="2" stroke="darkblue" stroke-opacity="1" stroke-width="0.2" width="2" x="24" y="34"/>
<rect fill="darkblue" fill-opacity="0.1" height="2" stroke="darkblue" stroke-opacity="1" stroke-width="0.2" width="2" x="26" y="34"/>
<rect fill="darkblue" fill-opacity="0.1" height="2" stroke="darkblue" stroke-opacity="1" stroke-width="0.2" width="2" x="28" y="34"/>
<rect fill="darkblue" fill-opacity="0.1" height="2" stroke="darkblue" stroke-opacity="1" stroke-width="0.2" width="2" x="42" y="34"/>
<rect fill="darkblue" fill-opacity="0.1" height="2" stroke="darkblue" stroke-opacity="1" stroke-width="0.2" width="2" x="44" y="34"/>
<rect fill="darkblue" fill-opacity="0.1" height="2" stroke="darkblue" stroke-opacity="1" stroke-width="0.2" width="2" x="6" y="36"/>
<rect fill="darkblue" fill-opacity="0.1" height="2" stroke="darkblue" stroke-opacity="1" stroke-width="0.2" width="2" x="20" y="36"/>
<rect fill="darkblue" fill-opacity="0.1" height="2" stroke="darkblue" stroke-opacity="1" stroke-width="0.2" width="2" x="28" y="36"/>
<rect fill="darkblue" fill-opacity="0.1" height="2" stroke="darkblue" stroke-opacity="1" stroke-width="0.2" width="2" x="42" y="36"/>
<rect fill="darkblue" fill-opacity="0.1" height="2" stroke="darkblue" stroke-opacity="1" stroke-width="0.2" width="2" x="6" y="38"/>
<rect fill="darkblue" fill-opacity="0.1" height="2" stroke="darkblue" stroke-opacity="1" stroke-width="0.2" width="2" x="20" y="38"/>
<rect fill="darkblue" fill-opacity="0.1" height="2" stroke="darkblue" stroke-opacity="1" stroke-width="0.2" width="2" x="28" y="38"/>
<rect fill="darkblue" fill-opacity="0.1" height="2" stroke="darkblue" stroke-opacity="1" stroke-width="0.2" width="2" x="30" y="38"/>
<rect fill="darkblue" fill-opacity="0.1" height="2" stroke="darkblue" stroke-opacity="1" stroke-width="0.2" width="2" x="42" y="38"/>
<rect fill="darkblue" fill-opacity="0.1" height="2" stroke="darkblue" stroke-opacity="1" stroke-width="0.2" width="2" x="6" y="40"/>
<rect fill="darkblue" fill-opacity="0.1" height="2" stroke="darkblue" stroke-opacity="1" stroke-width="0.2" width="2" x="18" y="40"/>
<rect fill="darkblue" fill-opacity="0.1" height="2" stroke="darkblue" stroke-opacity="1" stroke-width="0.2" width="2" x="20" y="40"/>
<rect fill="darkblue" fill-opacity="0.1" height="2" stroke="darkblue" stroke-opacity="1" stroke-width="0.2" width="2" x="30" y="40"/>
<rect fill="darkblue" fill-opacity="0.1" height="2" stroke="darkblue" stroke-opacity="1" stroke-width="0.2" width="2" x="42" y="40"/>
<rect fill="darkblue" fill-opacity="0.1" height="2" stroke="darkblue" stroke-opacity="1" stroke-width="0.2" width="2" x="6" y="42"/>
<rect fill="darkblue" fill-opacity="0.1" height="2" stroke="darkblue" stroke-opacity="1" stroke-width="0.2" width="2" x="18" y="42"/>
<rect fill="darkblue" fill-opacity="0.1" height="2" stroke="darkblue" stroke-opacity="1" stroke-width="0.2" width="2" x="30" y="42"/>
<rect fill="darkblue" fill-opacity="0.1" height="2" stroke="darkblue" stroke-opacity="1" stroke-width="0.2" width="2" x="42" y="42"/>
<rect fill="darkblue" fill-opacity="0.1" height="2" stroke="darkblue" stroke-opacity="1" stroke-width="0.2" width="2" x="6" y="44"/>
<rect fill="darkblue" fill-opacity="0.1" height="2" stroke="darkblue" stroke-opacity="1" stroke-width="0.2" width="2" x="8" y="44"/>
<rect fill="darkblue" fill-opacity="0.1" height="2" stroke="darkblue" stroke-opacity="1" stroke-width="0.2" width="2" x="16" y="44"/>
<rect fill="darkblue" fill-opacity="0.1" height="2" stroke="darkblue" stroke-opacity="1" stroke-width="0.2" width="2" x="18" y="44"/>
<rect fill="darkblue" fill-opacity="0.1" height="2" stroke="darkblue" stroke-opacity="1" stroke-width="0.2" width="2" x="30" y="44"/>
<rect fill="darkblue" fill-opacity="0.1" height="2" stroke="darkblue" stroke-opacity="1" stroke-width="0.2" width="2" x="32" y="44"/>
<rect fill="darkblue" fill-opacity="0.1" height="2" stroke="darkblue" stroke-opacity="1" stroke-width="0.2" width="2" x="40" y="44"/>
<rect fill="darkblue" fill-opacity="0.1" height="2" stroke="darkblue" stroke-opacity="1" stroke-width="0.2" width="2" x="42" y="44"/>
<rect fill="darkblue" fill-opacity="0.1" height="2" stroke="darkblue" stroke-opacity="1" stroke-width="0.2" width="2" x="8" y="46"/>
<rect fill="darkblue" fill-opacity="0.1" height="2" stroke="darkblue" stroke-opacity="1" stroke-width="0.2" width="2" x="14" y="46"/>
<rect fill="darkblue" fill-opacity="0.1" height="2" stroke="darkblue" stroke-opacity="1" stroke-width="0.2" width="2" x="16" y="46"/>
<rect fill="darkblue" fill-opacity="0.1" height="2" stroke="darkblue" stroke-opacity="1" stroke-width="0.2" width="2" x="32" y="46"/>
<rect fill="darkblue" fill-opacity="0.1" height="2" stroke="darkblue" stroke-opacity="1" stroke-width="0.2" width="2" x="34" y="46"/>
<rect fill="darkblue" fill-opacity="0.1" height="2" stroke="darkblue" stroke-opacity="1" stroke-width="0.2" width="2" x="40" y="46"/>
<rect fill="darkblue" fill-opacity="0.1" height="2" stroke="darkblue" stroke-opacity="1" stroke-width="0.2" width="2" x="8" y="48"/>
<rect fill="darkblue" fill-opacity="0.1" height="2" stroke="darkblue" stroke-opacity="1" stroke-width="0.2" width="2" x="10" y="48"/>
<rect fill="darkblue" fill-opacity="0.1" height="2" stroke="darkblue" stroke-opacity="1" stroke-width="0.2" width="2" x="12" y="48"/>
<rect fill="darkblue" fill-opacity="0.1" height="2" stroke="darkblue" stroke-opacity="1" stroke-width="0.2" width="2" x="14" y="48"/>
<rect fill="darkblue" fill-opacity="0.1" height="2" stroke="darkblue" stroke-opacity="1" stroke-width="0.2" width="2" x="34" y="48"/>
<rect fill="darkblue" fill-opacity="0.1" height="2" stroke="darkblue" stroke-opacity="1" stroke-width="0.2" width="2" x="36" y="48"/>
<rect fill="darkblue" fill-opacity="0.1" height="2" stroke="darkblue" stroke-opacity="1" stroke-width="0.2" width="2" x="38" y="48"/>
<rect fill="darkblue" fill-opacity="0.1" height="2" stroke="darkblue" stroke-opacity="1" stroke-width="0.2" width="2" x="40" y="48"/>
</svg>