<svg height="50" width="50" xmlns="http://www.w3.org/2000/svg" viewBox="-1 -1 52 52">
<defs>
<pattern height="1" id="p0" patternUnits="userSpaceOnUse" width="1" x="0" y="0">
<path d="M0,0 L0,1" stroke="grey" stroke-opacity="0.3" stroke-width="0.05" vectorEffect="non-scaling-stroke"/>
<path d="M0,0 L1,0" stroke="grey" stroke-opacity="0.3" stroke-width="0.05" vectorEffect="non-scaling-stroke"/>
<path d="M0,1 L1,1" stroke="grey" stroke-opacity="0.3" stroke-width="0.05" vectorEffect="non-scaling-stroke"/>
<path d="M1,0 L1,1" stroke="grey" stroke-opacity="0.3" stroke-width="0.05" vectorEffect="non-scaling-stroke"/>
</pattern>
</defs>
<rect fill="url(#p0)" height="50" width="50" x="0" y="0"/>
<path d="M49.33559924566968,3.340827312695527 C49.207669156180785,2.6659903487166297 48.99812559231157,2.103543771591733 48.71773647725665,1.6685347936879311 C48.44319781051183,1.2399037954587304 48.050369972801086,0.9071055883999927 47.61712048818148,0.7308353140021082 C47.25873282806493,0.5833448733271476 46.8472748942462,0.5114999999999998 46.39705,0.5114999999999998 C46.246693224265584,0.5115 46.08590165618769,0.5194528971430811 45.91953194759538,0.5354924077228366 C45.275057003464724,0.6001926328128608 44.585243520855826,0.7707896191310566 43.807691725964084,1.0660362921450273 C42.362489479855526,1.6181720518512055 40.97855520107107,2.4579889150483205 39.629699014967755,3.2765484191499112 L39.611282098688385,3.2876919408878154 C39.2149159985513,3.53251179735223 38.80648790688868,3.7781210828198613 38.41224027001879,4.015160783136954 C38.03925827851956,4.239418949529221 37.65422081792118,4.470959257758064 37.278346538637386,4.702507356023725 C36.079771321549366,5.445012442292517 34.716989700844984,6.330375035329862 33.60495457768073,7.507466815465506 C33.15045327972446,7.99468933254301 32.69669139517323,8.535381998512332 32.25893222369458,9.112176810703208 C31.848751247468265,9.652689722034681 31.43922152966264,10.242451769784688 31.042132476121918,10.865177483392072 C30.383856720457565,11.903196560483932 29.735932354582182,13.063384888061544 29.062121905055754,14.412640047355058 C28.419815330410028,15.698693458018958 27.819769258942078,17.026258549795173 27.31737601128753,18.15544860494263 C27.019347825096798,18.79562877919247 26.656622253151838,19.529967338232847 26.126059993376778,20.13714882201524 L25.25541148925296,19.731814345180652 C25.279830348250048,19.573745371415797 25.308821521043665,19.415550337340246 25.3365800172969,19.264454639786027 C25.415388784130467,18.83488725375091 25.493183842653515,18.41057303948448 25.462433687310266,18.005386911223816 C25.447471002105534,17.777795585313346 25.382220465492843,17.541606911788485 25.270615750582024,17.300085757872335 L25.267476387981073,16.887546109363814 C25.82527541266204,15.63053213275501 26.319658398741275,14.30811194613345 26.79915182044918,13.025378635375642 C26.995361165284255,12.50070141275641 27.19837367472454,11.957446335198242 27.403416877877685,11.425127463431563 C27.44753630117052,11.313676722505695 27.48986992886379,11.203116666719797 27.531106355748097,11.095416239292403 C27.68216868337839,10.701047236106582 27.8422667280217,10.282946512617658 28.05997463988162,9.89297483729104 C28.063000863449584,9.886962564932348 28.071534196782917,9.870812564932349 28.080067530116253,9.85466256493235 C28.225330311723837,9.579535993710309 28.360102433510274,9.323729127926251 28.391398321096748,9.062437991001422 C28.40252396170537,8.968766453827186 28.365083799018958,8.858372836398983 28.28805903371596,8.777674050304315 L28.282336530337563,8.771591939032332 L29.110252569330246,8.61976170874216 L29.109002569330244,8.622811708742162 C29.063169857152484,8.730679964705772 29.025985973524854,8.847984120239678 28.988448181631192,8.966325967884584 C28.960404794095282,9.054670480352591 28.930427873248323,9.149224215948866 28.895900891254477,9.243922006368884 C28.461784745519044,10.526098597043756 27.946779565366064,11.800854989208641 27.450291836310186,13.029703521874403 C27.154269304604465,13.762426633993222 26.84874202920177,14.518625556179412 26.563878209732767,15.268094614517283 C26.48159913089843,15.473781183469042 26.428552489651516,15.701952744067155 26.375329688386802,15.931046288626053 C26.299098023038088,16.259081508442385 26.215280991639037,16.61996884941002 26.04053648603556,16.9579079669247 C25.83152057640493,17.358199596338025 25.506716096143673,17.618690117047734 25.146259046064223,17.685641963021002 C24.635907720612394,17.689277547624204 24.240123375764473,17.43961875644361 24.003484246826613,17.042879090355882 C23.800680653912917,16.711271158315277 23.693724856678426,16.341820011652526 23.59669523371263,16.006873540273613 C23.542940352182455,15.821447826624611 23.489073941297143,15.6353468655463 23.42260187818879,15.470043647921964 C23.221419160236113,14.968878921438458 23.013761510410923,14.467372598950421 22.818114619198578,13.996114011167899 C22.546968421042816,13.345415611224638 22.30039464901946,12.647054149858242 22.06425925604699,11.863347357269804 C22.041794101908636,11.791222163486353 22.01780601675151,11.71413588546129 21.993817931594382,11.637049607436227 C21.679794729523046,10.625923217580674 21.361282996694197,9.60028164249932 20.800329778517533,8.779075141100964 L20.798190654756194,8.775924072585292 L21.435217499311808,8.942982838498613 L21.33561749931181,8.992632838498613 L21.60092217158591,8.437946352578557 L21.60137217158591,8.439996352578557 C21.836181435583946,9.506123980626816 22.19858056628045,10.524066215572432 22.557537119062285,11.471024036047377 C22.80124550148351,12.106287719295963 23.063276342607605,12.74952117969385 23.317251452199212,13.37296449799627 C23.803918314562605,14.567574380197748 24.309295232701437,15.808141919052908 24.719724224481528,17.07679593169299 L24.70641758786918,17.42088405408774 C24.663318262571472,17.508010999113985 24.63918492923814,17.554344332447318 24.615051595904806,17.60067766578065 C24.589550690058243,17.647598957690622 24.575112132801873,17.674421156586845 24.560673575545504,17.70124335548307 C24.45725113871973,17.975342683318523 24.4954777113136,18.296845624193924 24.556320044356166,18.62397302645458 C24.570739412197593,18.70393852741305 24.583341532760286,18.773526301911915 24.59594365332298,18.84311407641078 C24.656598028092585,19.16345096660452 24.727913063567524,19.538571571305148 24.645777970093693,19.93551362643757 L23.69932549607223,20.037451992883582 C22.775077790526275,17.96013410978541 21.759504565923308,15.753846509594094 20.589872219578652,13.674698375664704 C20.06556548212414,12.739568605351177 19.525220443825244,11.855071023773139 18.98392860357873,11.045055184540443 C18.400239973953816,10.171592057939497 17.792860077233033,9.350995009197698 17.17917598999632,8.606003536474006 C16.404002792519556,7.656771956952163 15.659110337574663,6.886781634209589 14.900227452690817,6.245837816517406 C13.953456127886389,5.436134280833096 12.880771557526767,4.6695750710235675 11.410912322510397,3.755779846023151 C10.55398239177405,3.2275050649256802 9.417431593504832,2.543899497318557 8.253139611937707,1.9594611079601174 C7.654896182342967,1.6610022595089045 7.125065818158355,1.4222339211770956 6.633739438248947,1.2292318845982986 C6.0467601473602866,0.998589698936016 5.508028416930485,0.82943237209456 4.984827247938677,0.7098883141468131 C4.422585980412646,0.5846401447545637 3.818854768139416,0.5135447321620545 3.19327225861895,0.499931660738266 C3.1946696097277765,0.5000323721673237 3.1861696097277767,0.500015705500657 3.1776696097277766,0.49999903883399033 C2.3996105487357235,0.5000000000000001 1.9603094719245033,0.6993437565676419 1.6786835330501129,0.9451480068902478 C1.3466598710693363,1.2753260603796546 1.1360631287989635,1.8154231020376599 0.9769767340548556,2.298149480680908 C0.7096733669830952,3.134814569389456 0.55080662805201,4.083914767954864 0.508479113778567,5.114861193924827 C0.4790759863655842,5.90952887267213 0.5259544575796459,6.603631939518549 0.6473458769503933,7.240071146705198 C0.7464298970410881,7.72088359477772 1.0043128674058497,8.158070194864086 1.270199635676156,8.608381567900498 C1.4126472104824146,8.849659843721174 1.5633011120073226,9.104890088358697 1.6928956205566839,9.37403136119907 C1.8923133432804928,9.757013906031304 2.0510322147794198,10.212513865912738 2.189016313838095,10.781513944626452 C2.5301650636204984,12.166933730257302 2.7150603307966916,13.603418269864306 2.8928094871457772,14.984473825441185 C3.026768546957275,16.025217374586145 3.164693325820162,17.096715665699453 3.3675808045314013,18.12995990634803 C3.4764724621249137,18.659484583643277 3.575608326488457,19.053756595235058 3.6880951597784164,19.409996436070497 C3.830461837162266,19.860792839349575 3.990889031710894,20.23353993913295 4.17620789548238,20.555548848392625 C4.401021405607308,20.946898408239505 4.725922884910609,21.283227717382417 5.115018567102959,21.527075725912475 C5.359777245821309,21.681882335401585 5.631454702599891,21.810932603659207 5.952798576074532,21.92086962794611 C6.219384496593556,22.012103684191963 6.521726863822773,22.09003661296636 6.8796872944712515,22.158167624733494 C7.473915216404094,22.267194007544138 8.065173589525195,22.31953769886009 8.567166090904315,22.356499893543873 C8.855462462308623,22.377697425123117 9.15009428413408,22.396136659336577 9.435754183003624,22.41402778000897 C10.464701647368022,22.478438111388353 11.539693826577587,22.545716696127602 12.59458011193255,22.757974418172253 C12.697153037940264,22.7885815686656 12.735986371273599,22.80191490199893 12.774819704606932,22.815248235332263 L12.909148322822007,23.69060509716564 C12.496051860357111,23.99514845725779 12.073131664758995,24.296495091159798 11.665036150141917,24.58726126504657 C10.956853867583538,25.09179076365193 10.227611053875107,25.611345465459102 9.535618959766262,26.158075431219313 C8.195861225788471,27.21269067285698 7.236208172761854,28.18331560530335 6.498078303407297,29.21528272127743 C6.261209147800869,29.55465721075154 6.0149476612774935,29.916719967372824 5.823550717896387,30.30053192298281 L5.864438181961424,30.184764822165413 C5.86177405039888,30.86703920445681 5.899585848291739,31.701813270949252 6.000215283965974,32.8003389268589 C6.218589526454317,35.07521025197417 6.674704646191196,37.276677256238955 7.2067802836249,39.72334885199203 L7.208020496509722,39.72893170211546 C7.5880706649905765,41.46804396993397 7.979171538346002,43.257516289406986 8.54056780006193,44.94441475374691 C8.897330621877005,46.000883919637296 9.254878116451005,46.81392770933901 9.663739163973663,47.510703001489254 C9.915420167330009,47.95608442290785 10.242796916937522,48.357530216141214 10.639848597520757,48.71202287731121 C11.069561237544404,49.091216378120926 11.441088136856246,49.314869547079816 11.77646838913669,49.42839888713748 C11.903813253274247,49.47283022892955 12.050914236002448,49.49915 12.24205,49.49915 C12.32005467329433,49.49915 12.40310100389818,49.49488742338647 12.49731615352951,49.48534500905625 C13.01978613160143,49.422676054633975 13.578232048124043,49.199020439789855 14.142806413682921,48.836999237272124 C14.78377406886712,48.436820587630145 15.378126108385576,47.89447582225226 15.914620399429126,47.22365897941501 C16.66237943191928,46.291729901844356 17.34854886105725,45.1688180257476 18.07411557192396,43.6779490812827 C18.632151368887858,42.52618109604497 19.144185383087578,41.28689327948231 19.63886233600303,39.88818566278967 C20.039071517182972,38.769443009990205 20.402671289764797,37.54657437866417 20.719475125392467,36.25172274649746 C20.860257203600103,35.6865310113582 20.99549973731371,35.11029245661089 21.126528722809383,34.55204710637267 C21.34623231720777,33.61593619849296 21.574052518520688,32.64524092781144 21.834407660085603,31.698784104286627 C22.158646993788746,30.537173689175546 22.581154628690392,29.182878424607342 23.253660183241998,27.952493050160854 L24.18096862674654,28.085995263703833 C24.34010161747767,28.81735860141039 24.33378807309892,29.565070719568702 24.32778186027202,30.27015903732449 C24.3270847081151,30.35461614671976 24.326338938283236,30.441772147562318 24.325893155224385,30.526966243254062 C24.323436276560024,30.724168655806164 24.319459337075635,30.920453692883633 24.31554307560002,31.109789872685447 C24.303195864321864,31.714804157914394 24.290472074169998,32.33437538915375 24.32878654846719,32.93523138204129 C24.352773144156608,33.28330292289734 24.39482445875741,33.68912343162434 24.524427626204055,34.040628122713116 C24.599215033024564,34.239007528904125 24.703422105304377,34.357851782571615 24.783518223227723,34.40009901240112 C24.84558997856923,34.41373650173315 24.909988129433074,34.42859326426865 24.97438628029692,34.44345002680414 C25.055207065601138,34.44345 25.145132672206724,34.42370942663705 25.231131956355583,34.38413478952036 C25.361863186504813,34.31865585926127 25.46811953254139,34.11107909618264 25.52338728614243,33.92025389768882 C25.644549383617804,33.50310707694291 25.66164419284565,33.026733440687146 25.668262709653387,32.60888130560744 C25.673355916392634,32.19540208611856 25.660269482397236,31.769701082954683 25.647583703088788,31.35493556415881 C25.633144654299834,30.88435391582609 25.618077093640583,30.39361187055478 25.62912840293148,29.906069225791278 C25.648226528346232,29.286354858372608 25.688101737735764,28.611378415500656 25.944217151980403,27.990367384187042 L26.875901033240215,28.008907793931005 C27.486843768458396,29.67550098167706 27.985599302785833,31.41549041727927 28.46654462858151,33.09337938986945 L28.485033772713123,33.15804077050629 C28.562903060336094,33.43263865953931 28.641445155676458,33.71073771037313 28.71741182970322,33.979596722596874 C29.164681845157443,35.56261309865565 29.626518366477196,37.19734022242451 30.12781329265338,38.78374555174736 C30.612506717051993,40.309084700824144 31.287113103350407,42.30562075968848 32.20450505605264,44.201018765964434 C32.56511817242171,44.93816885090352 32.91940787027321,45.57299275024072 33.28670903831679,46.141898222114285 C33.7112455905977,46.7994510775243 34.14132662451909,47.351976271093605 34.601440838307674,47.83529789597478 C35.032537390001615,48.29021411856581 35.56058181160077,48.683944716345366 36.17055316147984,49.007063924513524 C36.71059471875114,49.2842454637066 37.18203574792609,49.43294280484304 37.61430616858904,49.48307955660671 C37.706568518740724,49.49454158116317 37.79424886883777,49.5 37.87855,49.5 C38.10575553290582,49.5 38.35299168524794,49.46144460897625 38.59180990791575,49.34809557405743 C38.99681530655123,49.162251606080254 39.41847556230108,48.81045300986197 39.87229333187872,48.171669606839366 C40.19277401889263,47.71941752135074 40.49179450556953,47.178438605228564 40.81287212957969,46.460558874541206 C41.374229488509535,45.18853692926891 41.773076397035126,43.85097006566515 42.08960416392284,42.70859123528733 C42.53209355519821,41.074418829749824 42.84077897150002,39.80857266011858 43.0909441118398,38.60388863876737 C43.67341907784958,35.82703032821964 44.01254057576913,32.95205434096644 44.098771849924226,30.058307024916488 L44.098549999999996,30.07245 L44.157964450038136,30.308849911516074 C43.86558384044192,29.766703867388184 43.51430598628853,29.228868912454356 43.11382635394755,28.711192143677494 C42.74389976111031,28.23287697023127 42.32161100653068,27.758400663378257 41.85851830597536,27.301459283079247 C41.257972010255834,26.716583711462867 40.7100005712184,26.25519496139912 40.18514068678114,25.89011855185909 C39.90156007726453,25.689073485458543 39.60891615600775,25.49442238989095 39.32415206640189,25.305026235504197 C38.53234775646237,24.778445589105555 37.696837365261636,24.222798149319072 36.9778128256402,23.48093319992168 L37.29768604349861,22.634486175323467 C37.8097575573471,22.594253072134933 38.328510342993496,22.569064231295627 38.82813529287261,22.54478912307798 C39.176880870913585,22.527852471543742 39.5363436999639,22.510371216355914 39.888345585381465,22.488006182309142 C41.23916665148081,22.403135132230076 42.436820112871104,22.309148957581716 43.6000870274667,22.00991445207557 C44.161026617125174,21.856413645190738 44.78642343523026,21.645051527374584 45.284620354964865,21.224375952839345 C45.57949387369173,20.97081928818041 45.84791797797967,20.56333873025403 46.10304114149613,19.87408594146082 C46.37703387651737,19.129114421042715 46.54290027069454,18.34280919297832 46.704468801247174,17.5244540240892 C46.73231958639521,17.374390595786224 46.76203739005233,17.21653041879204 46.790718781383205,17.064063546202423 C46.87393058948092,16.622308859023686 46.9596542600366,16.167251542070478 47.03369611602701,15.719394631953731 C47.121953578223376,15.166008894088424 47.191876988416716,14.593497232506559 47.25978564724,14.037302448527871 C47.29775297921182,13.726040516206613 47.3371794667758,13.403337969479779 47.379600496289726,13.085709880479545 C47.56069096508446,11.744259360943081 47.76946174642091,10.421390537496091 48.30543332140247,9.209644753728401 C48.40931918735947,8.970034705287377 48.522451614916996,8.729047093932643 48.63088230474212,8.498044776624699 C48.83540989966306,8.062363240997279 49.043242449594075,7.619678021307461 49.196996149362484,7.167300049093952 C49.39080036207449,6.601818425885863 49.49255342974345,6.0415074281670575 49.49893484985963,5.501046725898656 C49.50852261486624,4.673883082176915 49.4540329557282,3.9684704079302833 49.33552069446845,3.3404119923520477 Z M50.31817930553155,3.154988007647953 C50.451071511506186,3.8592532662796204 50.50907698501492,4.631851437167263 50.49886515014037,5.512853274101343 C50.49124819248802,6.157955180414702 50.37202878914603,6.8231965174842255 50.14380385063752,7.489099950906048 C49.97215729648423,7.994122725787307 49.74854448605344,8.470446944308119 49.53611769525788,8.9229552233753 C49.42987123777466,9.149304220360975 49.32088109174401,9.38146465105746 49.21996667859752,9.614155246271597 C48.73878880915845,10.702021248410192 48.54458919763636,11.93072834636129 48.37079950371027,13.218090119520454 C48.32912050277067,13.530162258541482 48.29014626303096,13.849165696001178 48.252414352760006,14.158497551472127 C48.18372756126981,14.721065504028706 48.112346536919794,15.305490384015686 48.02030388397299,15.88250536804627 C47.94444569883411,16.3413487067082 47.857366256167865,16.80360788678691 47.773481218616794,17.24893645379758 C47.74486271221105,17.401069037587984 47.71528040787458,17.558209435053442 47.68553119875283,17.718145975910804 C47.51825872468558,18.565391991564884 47.34147554537971,19.403859961432392 47.040858858503874,20.221214058539182 C46.75581793012397,20.99129409399383 46.41109803593549,21.574615709109185 45.92977964503513,21.988424047160656 C45.276673219480244,22.539904616228245 44.50261569608158,22.799712447931583 43.849212972533294,22.978385547924425 C42.59755930788476,23.300356336147406 41.335060238620486,23.399082027029944 39.95175441461854,23.485993817690854 C39.59235609100348,23.50882879692532 39.2280093719951,23.52654800230443 38.87666470712738,23.54361087692202 C38.38221743600377,23.567634419015647 37.87324285645457,23.592346895352957 37.37601395650139,23.631413824676535 L37.6958871743598,22.784966800078323 C38.33995531251321,23.449494295859232 39.11390166031064,23.964253290519242 39.87794793359811,24.472373764495803 C40.16705050573475,24.664655436885692 40.4678393420602,24.864726102819443 40.75615931321886,25.06918144814091 C41.33277590308079,25.470258231773762 41.92252223214442,25.96790807409355 42.56088169402464,26.589640716920755 C43.053901097311076,27.076111279686597 43.50611003026792,27.583835690023324 43.904773646052455,28.099307856322504 C44.33741292155719,28.658555528620013 44.718830205644586,29.24212217754476 45.03843554996186,29.834750088483926 L45.098549999999996,30.07245 L45.098328150075766,30.088092975083512 C45.01035933480199,33.04014866008626 44.66438031316865,35.973872575000584 44.070055888160205,38.80721136123263 C43.81492154855379,40.03582483553361 43.50120725749546,41.32147816892426 43.053295836077154,42.975608764712675 C42.72776378676052,44.15048490719262 42.31498295052778,45.53363488451687 41.725727870420315,46.868841125458786 C41.38450330498032,47.631766290042115 41.054819299155945,48.232491907992156 40.68750666812129,48.75083039316063 C40.201131169137035,49.435441303564446 39.65818328773938,49.959053666559065 39.020590092084255,50.251504425942564 C38.67909128313628,50.41358820660122 38.29487477011164,50.5 37.87855,50.5 C37.75198759042907,50.5 37.62306853523923,50.49186302916088 37.49909383141096,50.476420443393295 C36.91195468967949,50.40832129065788 36.32341114379751,50.20955220742436 35.70244683852017,49.89073607548648 C34.99378493037414,49.515337665930886 34.379799759520566,49.05521955795932 33.877159161692326,48.52480210402522 C33.36776267550121,47.98971248923715 32.89984462935303,47.38633377442944 32.446590961683206,46.684301777885715 C32.054895812904284,46.077612954559626 31.681585064823746,45.40773776662643 31.304394943947365,44.636681234035564 C30.360174904483298,42.685854463630164 29.670356178714993,40.64619853130716 29.174286707346624,39.08505444825265 C28.668381582545322,37.484059616251386 28.203815669506756,35.83967810503085 27.755088170296784,34.251503277403124 C27.679154871183414,33.98276238468854 27.60069693982383,33.70496134102463 27.52356622728687,33.432959229493704 L27.505255371418492,33.36892061013055 C27.027814387108144,31.703257343081216 26.535556643757207,29.985900142807555 25.936998966759784,28.353092206068997 L26.868682848019596,28.37163261581296 C26.678139271540505,28.833649567383226 26.645550038614566,29.38854691640005 26.62887159706852,29.928730774208724 C26.61842287188115,30.389689650497992 26.632958249769366,30.86294073042913 26.647116296911218,31.324364435841193 C26.660028420068155,31.746530337495933 26.673544094041294,32.18629706734199 26.668137290346618,32.624718694392556 C26.660597724786356,33.10072013979892 26.639474312672515,33.66286705184499 26.48391271385757,34.19844610231118 C26.36561220329791,34.60690703908864 26.115688448224493,35.06015695845267 25.649168043644416,35.29256521047964 C25.435375358497087,35.390947051871066 25.20322012456435,35.44345 24.974713719703082,35.443449973195854 C24.738328110872327,35.443527375163384 24.51678914681492,35.388660566509074 24.31698177677228,35.28460098759887 C23.99793169223065,35.11631589965423 23.742007687068043,34.800050776890636 23.586172373795943,34.38657187728688 C23.412890321336345,33.91660300599279 23.35980432491149,33.41976703226026 23.330813451532816,32.99886861795871 C23.289827745627623,32.35612178487309 23.303107800620268,31.708916259921384 23.315756924399977,31.089110127314555 C23.31964056141884,30.901351214518062 23.32356371859563,30.70773173093419 23.325906844775616,30.521733756745935 C23.326361060792635,30.434928029048766 23.327115309429736,30.346781727849514 23.32781813972798,30.261640962675514 C23.333501660092857,29.59443453351723 23.33920660154863,28.920779172620474 23.203831373253458,28.298604736296166 L24.131139816758,28.432106949839145 C23.506980685297503,29.574039921958992 23.10730286234411,30.858064205793745 22.7985923399144,31.96401589571337 C22.543247359224633,32.89225951661527 22.318262221193326,33.85088707223379 22.100071277190615,34.78055289362733 C21.968501418498658,35.341102619082626 21.83224281635555,35.92166890852927 21.690824874607532,36.489377253502546 C21.366830250241335,37.813619326969324 20.993630425299887,39.06995156005031 20.581637663996972,40.221614337210326 C20.07621339441752,41.65071017714311 19.55024722096399,42.924721814451104 18.97328442807604,44.11555091871731 C18.223447258031104,45.656289948613086 17.4996143865112,46.846177802212516 16.695579600570873,47.848241020584986 C16.085890345484355,48.61057871557405 15.406809865740986,49.226739148563894 14.682593586317081,49.678800762727874 C13.964149968662282,50.139487322853775 13.266865539356129,50.400228132929 12.598083846470491,50.48025499094374 C12.474078249533067,50.49281467789295 12.357226474609845,50.49915 12.24205,50.49915 C11.968112724804463,50.49915 11.705060655384466,50.462628664931806 11.455831610863308,50.37560111286252 C10.95409235670517,50.20575770074066 10.469024582505448,49.89495935473232 9.97385140247924,49.45797712268879 C9.493191591881702,49.02883808686882 9.097481664039982,48.541295836090846 8.801260836026337,48.01679699851075 C8.350131025601437,47.247987870419195 7.9663755247071935,46.369634282286015 7.59173219993807,45.26018524625309 C7.013627586095529,43.52308107969156 6.6151068544727485,41.69975315842354 6.231679503490277,39.94516829788455 L6.2296197163751,39.93585114800797 C5.69310614424116,37.46877236197788 5.2286107264521275,35.227492382687004 5.004384716034026,32.891561073141105 C4.901312851240401,31.76637253243623 4.861126164387743,30.894148832375837 4.887261818038575,29.972335177834587 L4.928649282103613,29.854268077017185 C5.150872600124949,29.408639402048866 5.424762960558925,29.005852991696646 5.684721696592703,28.633517278722568 C6.490987789222084,27.506290040179856 7.52323208368791,26.469514593708112 8.915681040233737,25.37342456878068 C9.62708926368826,24.811354283640043 10.369679554511146,24.28228542548317 11.084763849858083,23.77283873495343 C11.490561841538922,23.483709535573016 11.909148036673532,23.18545161865337 12.315751677177994,22.885694902834356 L12.45008029539307,23.761051764667734 C12.411246962059737,23.747718431334402 12.372413628726402,23.73438509800107 12.397319888067452,23.738325581827752 C11.409102779108606,23.53948262088948 10.379232252686146,23.47504523121528 9.373245816996377,23.41207221999103 C9.08571219672201,23.394063746564914 8.787537621560716,23.375402581043538 8.493733909095685,23.353800106456124 C7.967738520135796,23.31507055588297 7.340498768082706,23.259408558530374 6.69271270552875,23.140532375266503 C6.295712371750295,23.064970854784434 5.946940244472737,22.97580478297651 5.629101423925469,22.86703037205389 C5.244805815637906,22.735556523914713 4.900526745647135,22.57464669074732 4.5839814328970405,22.374424274087524 C4.056326383971664,22.04374048919865 3.6158481847983244,21.58764865548054 3.3094921045176213,21.05435115160737 C3.0817103307492695,20.65855895308178 2.894337674671719,20.217205614899072 2.7345048402215846,19.711103563929502 C2.609197502717716,19.31426186555203 2.5020319245855807,18.885536752254072 2.386319195468599,18.322640093651973 C2.1771064073830586,17.257182975585668 2.036423014563754,16.16431706588718 1.9009905128542228,15.112126174558815 C1.7257588210460666,13.75063053398592 1.5456357426982643,12.3510695442687 1.217183686161905,11.017186055373548 C1.0931857631046227,10.505860268842678 0.9591022942238085,10.129916166092352 0.791904379443316,9.80786863880093 C0.6805954797624088,9.576702833444525 0.5440446033753832,9.34538752975122 0.4091003643238437,9.116818432099503 C0.11941557038651757,8.626202226733952 -0.19914198320016072,8.087057723807115 -0.33494587695039335,7.427428853294803 C-0.4729582875102525,6.703847980660228 -0.5224750734865273,5.932946458710484 -0.4906791137785666,5.073838806075174 C-0.44488962482904715,3.9585710945214982 -0.27175985241323203,2.920830156461538 0.027223265945144126,1.9851505193190924 C0.2201126785312294,1.3998534059733705 0.489780073978757,0.7165148809646411 1.0211164669498873,0.19175199310975177 C1.6402158543499026,-0.3486004382155413 2.4276122920720704,-0.4999999999999999 3.179630390272224,-0.49999903883399033 C3.188130390272224,-0.49998237216732366 3.1966303902722237,-0.499965705500657 3.2150277413810504,-0.49983166073826624 C3.9038253847023006,-0.4848429879854794 4.573188509913526,-0.40632354985111485 5.207572752061322,-0.264988314146813 C5.785966834709729,-0.13283345702752836 6.37263468852075,0.052208271923064736 6.999360561751054,0.2984681154017016 C7.521750808331607,0.503672610013891 8.078526943652035,0.754809277929781 8.701760388062294,1.0657388920398836 C9.89918855486374,1.6668106165362693 11.059098649998113,2.364144895591048 11.938887677489605,2.906520153976849 C13.440143527150934,3.839834306953672 14.555954778770568,4.635575046969371 15.545472547309181,5.481862183482596 C16.359185205930466,6.169114601885747 17.146592989075646,6.985122877398051 17.95102401000368,7.970196463525993 C18.58753931004579,8.742904246979766 19.214659452689023,9.590507084057949 19.815371396421266,10.489444815459558 C20.372480861575852,11.323130929693525 20.926335781791135,12.230033648913418 21.461427780421353,13.184401624335297 C22.651599795331958,15.300061243009349 23.68003977355005,17.534105366828516 24.61297450392777,19.630948007116416 L23.666522029906307,19.73288637356243 C23.708274112350303,19.531107125369832 23.662565275516446,19.288805047258908 23.613256346677023,19.028385923589223 C23.59929180057305,18.951073698088088 23.585327254469075,18.87376147258695 23.573179955643834,18.80682697354542 C23.492572681477977,18.373430572017874 23.429966585042585,17.862425951214284 23.6045264244545,17.40835664451693 C23.64187559801873,17.28642791042982 23.697464941588795,17.190515358681008 23.72814840409519,17.138722334219345 C23.752281737428525,17.092389000886012 23.776415070761857,17.04605566755268 23.78158241213082,17.040515945912258 L23.76827577551847,17.38460406830701 C23.36920460468431,16.1510575782993 22.87305854227949,14.933168810828237 22.391148547800785,13.750235502003727 C22.135827260595736,13.123487665240031 21.871254550641215,12.474012416577585 21.622462880937714,11.825475963952625 C21.252564129891045,10.849651696717563 20.87372242861833,9.785393564400719 20.624627828414088,8.654403647421443 L20.624177828414087,8.652353647421442 L20.88948250068819,8.097667161501386 L20.989082500688188,8.048017161501386 L21.6261093452438,8.215075927414707 L21.62607022148247,8.215024858899035 C22.27176793502283,9.160292918900439 22.619500527218957,10.280071464517787 22.94888206840562,11.340650392563775 C22.97266064991516,11.417064114538713 22.996439231424695,11.493477836513648 23.021740743953007,11.574852642730198 C23.249407606365416,12.330453335510308 23.48483423223474,12.99629075613897 23.741685380801425,13.6126859888321 C23.938237382677855,14.086124734810342 24.147380736281715,14.591220820777773 24.350398121811207,15.096956352078037 C24.435536081040887,15.308678058077966 24.498412987209218,15.52582605952166 24.55720476628737,15.728626459726383 C24.641298352710052,16.01891770457441 24.72381712180986,16.30406166364635 24.862315753173387,16.53062090964412 C24.93191469618861,16.64730770415632 25.02212125513412,16.693640665306418 24.963640953935773,16.702458036979 C24.99109201902262,16.69735923399792 25.07602514898892,16.64458624352225 25.152263513964446,16.498592033075298 C25.26958841927886,16.2716969165306 25.334824836316987,15.990677615935603 25.401270311613192,15.704753711373943 C25.460664798831388,15.449094608870155 25.52497753089034,15.172677099456546 25.62912179026723,14.912805385482718 C25.91765800997788,14.153674340739983 26.225733806180646,13.391165666105923 26.52310816368982,12.6550964781256 C27.01590678714668,11.435378789460408 27.523815134811862,10.178201756288683 27.956399108745522,8.901377993631115 C27.983673765810202,8.826571288575076 28.00949845770068,8.745104247755892 28.035251818368806,8.663974032115414 C28.077944919050765,8.529379529841393 28.124415572516714,8.382854291514414 28.183697430669753,8.24358829125784 L28.184947430669755,8.240538291257838 L29.012863469662438,8.088708060967667 L29.01144096628404,8.087225949695684 C29.29201305157258,8.381181103025488 29.431160306042486,8.78684984863936 29.384301678903245,9.181362008998578 C29.33079144028077,9.628122020139077 29.134660280486848,9.999048606572618 28.964232469883754,10.321837435067652 C28.955699136550418,10.337987435067651 28.947165803217086,10.354137435067651 28.933125360118378,10.380425162708958 C28.75031849667455,10.7078799538066 28.60690648708787,11.082500776078845 28.46499364425191,11.452983760707594 C28.42303648660214,11.562566577501999 28.37936383827507,11.67662292543031 28.336583122122317,11.784572536568435 C28.133326333101287,12.312253644484894 27.931437829226052,12.852501275991798 27.735848179550818,13.375521364624358 C27.252656618879616,14.668147878961754 26.751425000836893,16.00886693541485 26.181523612018925,17.293153890636187 L26.178384249417974,16.880614242127667 C26.3445538372219,17.240217961596375 26.43760432769974,17.59467594942844 26.459566312689738,17.929713088776182 C26.500118657607786,18.46405990575386 26.406446569521595,18.974600344257983 26.3201199827031,19.445145360213974 C26.293293686982494,19.5911668819752 26.26597015070816,19.740251398711283 26.243688510747038,19.884485654819343 L25.37304000662322,19.479151177984754 C25.81698725338322,18.971092900105873 26.138350800068775,18.318656200866698 26.40372398871247,17.748951395057365 C26.910523437830413,16.609857865098757 27.51648292346096,15.269310038154464 28.16747809494425,13.965859952644944 C28.854267753143027,12.590614896226768 29.51864368599026,11.40030279860014 30.198967523878085,10.32752251660793 C30.60947793894397,9.683749063560697 31.0344482065251,9.07151099746147 31.462367776305424,8.50762318929679 C31.919110372183752,7.90581567280468 32.3945485855927,7.33900866790858 32.878045422319275,6.820733184534493 C34.073638134539436,5.555195500850594 35.51024860098754,4.621489369461591 36.75385346136262,3.851092643976275 C37.134279256948865,3.6167406961200874 37.52234517761106,3.3833789724468146 37.89695972998121,3.158139216863046 C38.28940808876574,2.9221813247757407 38.69448391353203,2.6785882569450115 39.09361790131161,2.432108059112185 L39.110900985032245,2.4216515808500887 C40.48692752938901,1.5866036214132713 41.921297631603096,0.7162328721725988 43.45270827403592,0.13116370785497256 C44.292922600449614,-0.18787675494385053 45.069414255298916,-0.3841897475922218 45.82356805240462,-0.45989240772283674 C46.01920018335607,-0.4787530744913608 46.21210854299588,-0.4885 46.39705,-0.48850000000000005 C46.99123348385259,-0.4885 47.527804809148314,-0.38729436734727035 47.99397951181853,-0.19543531400210812 C48.62206236768849,0.06010414139045772 49.17583467836606,0.5296785417523381 49.558263522743346,1.1267652063120686 C49.91043796186762,1.6731453422787923 50.1662705344991,2.3536614630529495 50.318100754330324,3.1545726873044733 Z" fill="blue" stroke-width="0.1"/>
</svg>