<svg viewBox="-3 -3 56, 56" xmlns="http://www.w3.org/2000/svg">
<defs>
<pattern height="1" id="p0" patternUnits="userSpaceOnUse" width="1" x="0" y="0">
<path d="M0,0 L0,1" stroke="grey" stroke-opacity="0.3" stroke-width="0.05" vectorEffect="non-scaling-stroke"/>
<path d="M0,0 L1,0" stroke="grey" stroke-opacity="0.3" stroke-width="0.05" vectorEffect="non-scaling-stroke"/>
<path d="M0,1 L1,1" stroke="grey" stroke-opacity="0.3" stroke-width="0.05" vectorEffect="non-scaling-stroke"/>
<path d="M1,0 L1,1" stroke="grey" stroke-opacity="0.3" stroke-width="0.05" vectorEffect="non-scaling-stroke"/>
</pattern>
</defs>
<rect fill="url(#p0)" height="50" stroke="black" stroke-width="0.25" width="50" x="0" y="0"/>
<path d="M49.82685,3.2477 C49.687599999999996,2.51315 49.455799999999996,1.8907 49.138,1.3976499999999998 C48.80965,0.885 48.33645,0.4837 47.805550000000004,0.2677 C47.3926,0.09775 46.9187,0.0115 46.39705,0.0115 C46.2294,0.0115 46.05255,0.02035 45.87155,0.0378 C45.172250000000005,0.108 44.439099999999996,0.29145 43.6302,0.5986 C42.1419,1.1672 40.7329,2.0222 39.3703,2.8491 L39.35245,2.8599 C38.954699999999995,3.10555 38.54795,3.3501499999999997 38.1546,3.58665 C37.7808,3.8114000000000003 37.39425,4.04385 37.0161,4.2768 C35.79485,5.03335 34.3953,5.9428 33.2415,7.1640999999999995 C32.7725,7.66685 32.307900000000004,8.220600000000001 31.86065,8.809899999999999 C31.441599999999998,9.3621 31.024350000000002,9.963099999999999 30.62055,10.596350000000001 C29.95125,11.65175 29.2951,12.827 28.614800000000002,14.189250000000001 C27.96815,15.484 27.36515,16.81805 26.86055,17.952199999999998 C26.578449999999997,18.558 26.236700000000003,19.25065 25.74955,19.808149999999998 C25.7729,19.657 25.801049999999996,19.503400000000003 25.82835,19.3548 C25.911099999999998,18.90375 25.99665,18.4373 25.961000000000002,17.96755 C25.94245,17.6849 25.862849999999998,17.38975 25.7245,17.09035 C26.288349999999998,15.819700000000001 26.78615,14.48815 27.2675,13.20045 C27.4634,12.676599999999999 27.66585,12.13485 27.87,11.604849999999999 C27.91345,11.49515 27.95645,11.38285 27.998050000000003,11.274199999999999 C28.1447,10.89135 28.296300000000002,10.4954 28.49655,10.1367 C28.505049999999997,10.1206 28.5136,10.10445 28.522150000000003,10.08825 C28.681099999999997,9.7872 28.84545,9.4759 28.887849999999997,9.1219 C28.916950000000003,8.876900000000001 28.82795,8.619150000000001 28.64975,8.43245 L28.6476,8.43015 L28.646349999999998,8.433200000000001 C28.5938,8.556750000000001 28.552149999999997,8.6881 28.51185,8.81515 C28.484900000000003,8.90005 28.45705,8.9879 28.42615,9.07265 C27.992800000000003,10.35215 27.48135,11.6181 26.986700000000003,12.842400000000001 C26.69,13.5768 26.383200000000002,14.33615 26.0965,15.09045 C26.003300000000003,15.3232 25.9448,15.5747 25.888299999999997,15.817899999999998 C25.81655,16.12665 25.7424,16.445899999999998 25.596400000000003,16.72825 C25.46215,16.98535 25.26465,17.1551 25.054949999999998,17.19405 C24.8195,17.19135 24.581149999999997,17.0353 24.4329,16.78675 C24.2623,16.507749999999998 24.1681,16.1824 24.07695,15.86775 C24.02055,15.673200000000001 23.9623,15.472 23.886499999999998,15.2835 C23.6844,14.78005 23.476,14.27675 23.2799,13.8044 C23.015900000000002,13.170850000000002 22.774900000000002,12.48875 22.543,11.719100000000001 C22.51905,11.6425 22.4952,11.5657 22.47135,11.488850000000001 C22.1494,10.452200000000001 21.8165,9.38025 21.2132,8.49705 L21.212149999999998,8.4955 L21.11255,8.54515 L21.113,8.5472 C21.35495,9.64575 21.72555,10.6868 22.09,11.64825 C22.33625,12.29015 22.599549999999997,12.9365 22.8542,13.561599999999999 C23.3385,14.750399999999999 23.83925,15.9796 24.244,17.2307 C24.22395,17.27945 24.19735,17.3253 24.171599999999998,17.369699999999998 C24.13795,17.42765 24.1032,17.48755 24.082600000000003,17.5548 C23.944499999999998,17.91655 23.9924,18.3264 24.06475,18.7154 C24.07675,18.78845 24.09095,18.86335 24.1046,18.935750000000002 C24.160400000000003,19.230449999999998 24.218049999999998,19.535050000000002 24.15615,19.8342 C23.22755,17.7471 22.20555,15.526950000000001 21.025650000000002,13.42955 C20.49595,12.4848 19.94885,11.5891 19.399649999999998,10.76725 C18.80745,9.88105 18.1902,9.046949999999999 17.5651,8.2881 C16.7753,7.32095 16.009149999999998,6.527950000000001 15.22285,5.86385 C14.254700000000001,5.03585 13.16045,4.2547 11.674900000000001,3.33115 C10.8065,2.7958 9.6583,2.10535 8.477450000000001,1.5126 C7.8667,1.2079 7.3233999999999995,0.96295 6.81655,0.76385 C6.2097,0.5254 5.647,0.3483 5.0962,0.22244999999999998 C4.49785,0.08915000000000001 3.8613,0.01435 3.2041500000000003,0.000049999999999999996 C3.1956499999999997,0 3.18715,0 3.17865,0 C2.3863499999999997,0 1.7881999999999998,0.1859 1.3499,0.56845 C0.9192,0.99495 0.6796,1.6030499999999999 0.5021,2.1416500000000003 C0.21889999999999998,3.028 0.052950000000000004,4.02145 0.0089,5.09435 C-0.0217,5.921250000000001 0.0265,6.65375 0.1562,7.33375 C0.27365,7.904 0.5614,8.391350000000001 0.8396499999999999,8.8626 C0.9784499999999999,9.0977 1.12195,9.3408 1.2424,9.59095 C1.4257,9.94345 1.5720999999999998,10.35915 1.7031,10.89935 C2.0379,12.259 2.2204,13.676949999999998 2.3969,15.048300000000001 C2.5316,16.0948 2.6709,17.176949999999998 2.87695,18.226300000000002 C2.9892499999999997,18.7725 3.0924,19.184 3.2113000000000005,19.56055 C3.3624,20.039 3.5362999999999998,20.44605 3.7428500000000002,20.804949999999998 C4.00845,21.2673 4.39115,21.6635 4.8495,21.95075 C5.13005,22.1282 5.438,22.273200000000003 5.7909500000000005,22.39395 C6.08315,22.493949999999998 6.4087000000000005,22.5775 6.786200000000001,22.64935 C7.4072,22.7633 8.016399999999999,22.8173 8.53045,22.85515 C8.8215,22.87655 9.117899999999999,22.8951 9.4045,22.91305 C10.422099999999999,22.976750000000003 11.4744,23.0426 12.49595,23.248150000000003 C12.53665,23.25755 12.5759,23.2728 12.61245,23.288149999999998 C12.2026,23.5903 11.78185,23.8901 11.3749,24.18005 C10.66325,24.68705 9.92735,25.21135 9.22565,25.765749999999997 C7.85955,26.8411 6.8636,27.844799999999996 6.0914,28.9244 C5.84285,29.280450000000002 5.5828999999999995,29.662699999999997 5.3761,30.077399999999997 L5.37585,30.07855 C5.3614500000000005,30.8806 5.400449999999999,31.734099999999998 5.5023,32.84595 C5.7236,35.15135 6.1838999999999995,37.372699999999995 6.7182,39.8296 L6.719849999999999,39.837050000000005 C7.1015999999999995,41.583949999999994 7.4964,43.390299999999996 8.06615,45.1023 C8.43185,46.185249999999996 8.8025,47.03095 9.2325,47.76375 C9.5064,48.2486 9.8679,48.6931 10.306849999999999,49.085 C10.76925,49.49305 11.19755,49.7603 11.61615,49.902 C11.80335,49.967349999999996 12.008099999999999,49.99915 12.24205,49.99915 C12.33865,49.99915 12.4386,49.99385 12.5477,49.9828 C13.1471,49.911 13.77455,49.6671 14.412700000000001,49.2579 C15.095500000000001,48.831649999999996 15.73215,48.25235 16.3051,47.53595 C17.081,46.56895 17.785999999999998,45.41255 18.5237,43.896750000000004 C19.0912,42.725449999999995 19.6102,41.4688 20.11025,40.054899999999996 C20.51635,38.9197 20.88475,37.6801 21.20515,36.37055 C21.34625,35.8041 21.482,35.225699999999996 21.6133,34.6663 C21.832250000000002,33.7334 22.05865,32.768750000000004 22.3165,31.8314 C22.633049999999997,30.69735 23.0441,29.3784 23.6924,28.1923 C23.839650000000002,28.86905 23.833650000000002,29.57915 23.8278,30.265900000000002 C23.8271,30.350700000000003 23.826349999999998,30.438349999999996 23.8259,30.52435 C23.8235,30.715949999999996 23.81955,30.9109 23.815649999999998,31.09945 C23.803150000000002,31.71195 23.790149999999997,32.34525 23.829800000000002,32.96705 C23.8564,33.35315 23.904,33.80325 24.0553,34.2136 C24.16685,34.50955 24.34265,34.73285 24.550250000000002,34.842349999999996 C24.679100000000002,34.90945 24.82185,34.9435 24.97455,34.94345 C25.12975,34.94345 25.29075,34.9071 25.44015,34.83835 C25.7838,34.66695 25.9407,34.2767 26.00365,34.05935 C26.14195,33.583200000000005 26.161099999999998,33.06505 26.168200000000002,32.6168 C26.17345,32.19085 26.160149999999998,31.75815 26.147350000000003,31.339650000000002 C26.13305,30.8736 26.11825,30.39165 26.129,29.9174 C26.146950000000004,29.33545 26.18325,28.722199999999997 26.40645,28.181 C27.011200000000002,29.8307 27.506700000000002,31.559350000000002 27.9859,33.23115 L28.004299999999997,33.2955 C28.0818,33.568799999999996 28.1603,33.84675 28.236250000000002,34.11555 C28.68425,35.70115 29.147450000000003,37.3407 29.65105,38.934400000000004 C30.14145,40.4777 30.82365,42.49575 31.754450000000002,44.41885 C32.12335,45.17295 32.48715,45.8253 32.86665,46.4131 C33.305550000000004,47.0929 33.75455,47.67085 34.2393,48.18005 C34.706199999999995,48.67275 35.2772,49.09965 35.9365,49.4489 C36.5172,49.747 37.04715,49.92065 37.5567,49.97975 C37.6648,49.9932 37.7731,50 37.87855,50 C38.2143,50 38.5264,49.9326 38.806200000000004,49.7998 C39.32805,49.5604 39.810050000000004,49.1226 40.279900000000005,48.46125 C40.623799999999996,47.97595 40.93815,47.4051 41.2693,46.664699999999996 C41.8446,45.3611 42.2504,44.0008 42.57145,42.8421 C43.01665,41.19795 43.32785,39.922200000000004 43.5805,38.70555 C44.1689,35.90045 44.51145,32.9961 44.598549999999996,30.0732 L44.598549999999996,30.07245 L44.5982,30.0718 C44.2922,29.504399999999997 43.92585,28.9437 43.5093,28.40525 C43.125,27.90835 42.68775,27.41725 42.2097,26.94555 C41.590199999999996,26.3422 41.02135,25.8627 40.47065,25.47965 C40.1847,25.2769 39.888,25.07955 39.60105,24.8887 C38.8229,24.3712 38.0184,23.83615 37.33685,23.13295 C37.8415,23.0933 38.35535,23.068350000000002 38.852399999999996,23.0442 C39.20245,23.0272 39.56435,23.0096 39.92005,22.987 C41.28725,22.9011 42.5172,22.80475 43.72465,22.494149999999998 C44.3326,22.327849999999998 45.0317,22.09235 45.6072,21.6064 C45.995200000000004,21.2728 46.3018,20.7775 46.57195,20.04765 C46.85925,19.2665 47.03055,18.45425 47.195,17.6213 C47.2238,17.4663 47.25345,17.308799999999998 47.2821,17.1565 C47.365649999999995,16.71295 47.45205,16.2543 47.527,15.80095 C47.61715,15.235750000000001 47.6878,14.657300000000001 47.7561,14.0979 C47.79395,13.7876 47.83315,13.46675 47.8752,13.1519 C48.0527,11.83705 48.25415,10.56165 48.762699999999995,9.4119 C48.8651,9.17575 48.976150000000004,8.9392 49.0835,8.7105 C49.292049999999996,8.26625 49.5077,7.8069 49.6704,7.3282 C49.8814,6.71255 49.9919,6.0998 49.9989,5.50695 C50.0088,4.65285 49.95255,3.91385 49.82685,3.2477 Z" fill="none" stroke="black" stroke-width="0.1"/>
</svg>