<?xml version="1.0" encoding="UTF-8"?>
<svg id="Layer_1" xmlns="http://www.w3.org/2000/svg" xmlns:xlink="http://www.w3.org/1999/xlink" version="1.1" viewBox="0 0 56 8.32">
  <!-- Generator: Adobe Illustrator 29.7.1, SVG Export Plug-In . SVG Version: 2.1.1 Build 8)  -->
  <defs>
    <style>
      .st0, .st1, .st2, .st3, .st4 {
        fill: none;
      }

      .st5 {
        fill: url(#p0);
        stroke-width: .25px;
      }

      .st5, .st4 {
        stroke: #000;
      }

      .st1 {
        opacity: .3;
        stroke: gray;
        stroke-width: .05px;
      }

      .st2 {
        stroke: #32cd32;
      }

      .st2, .st3 {
        stroke-opacity: .6;
        stroke-width: .2px;
      }

      .st6 {
        fill: #ff0;
      }

      .st7 {
        font-family: LibertinusSans-Regular, 'Libertinus Sans';
        font-size: 3px;
      }

      .st3 {
        stroke: red;
      }

      .st4 {
        stroke-width: .1px;
      }

      .st8 {
        clip-path: url(#clippath);
      }
    </style>
    <clipPath id="clippath">
      <rect class="st0" y="2.32" width="56" height="5.76"/>
    </clipPath>
    <pattern id="p0" x="0" y="0" width="1" height="1" patternTransform="translate(1 -15538.01) scale(1 -1)" patternUnits="userSpaceOnUse" viewBox="0 0 1 1">
      <g>
        <rect class="st0" width="1" height="1"/>
        <g>
          <line y1="1"/>
          <line class="st1" y1="1"/>
        </g>
        <g>
          <line y1="1" x2="1" y2="1"/>
          <line class="st1" y1="1" x2="1" y2="1"/>
        </g>
        <g>
          <line x2="1"/>
          <line class="st1" x2="1"/>
        </g>
        <g>
          <line x1="1" y1="1" x2="1"/>
          <line class="st1" x1="1" y1="1" x2="1"/>
        </g>
      </g>
    </pattern>
  </defs>
  <g class="st8">
    <rect class="st5" x="1" y="-4.68" width="50" height="50"/>
    <line class="st4" x1="50.83" y1="-1.43" x2="50.14" y2="-3.28"/>
    <line class="st4" x1="50.14" y1="-3.28" x2="48.81" y2="-4.41"/>
    <line class="st4" x1="48.81" y1="-4.41" x2="47.4" y2="-4.67"/>
    <line class="st4" x1="47.4" y1="-4.67" x2="46.87" y2="-4.64"/>
    <line class="st4" x1="46.87" y1="-4.64" x2="44.63" y2="-4.08"/>
    <line class="st4" x1="44.63" y1="-4.08" x2="40.37" y2="-1.83"/>
    <line class="st4" x1="40.37" y1="-1.83" x2="40.35" y2="-1.82"/>
    <line class="st4" x1="40.35" y1="-1.82" x2="39.15" y2="-1.09"/>
    <line class="st4" x1="39.15" y1="-1.09" x2="38.02" y2="-.4"/>
    <line class="st4" x1="38.02" y1="-.4" x2="34.24" y2="2.49"/>
    <line class="st4" x1="34.24" y1="2.49" x2="32.86" y2="4.13"/>
    <line class="st4" x1="32.86" y1="4.13" x2="31.62" y2="5.92"/>
    <line class="st4" x1="31.62" y1="5.92" x2="29.61" y2="9.51"/>
    <line class="st4" x1="29.61" y1="9.51" x2="27.86" y2="13.27"/>
    <line class="st4" x1="27.86" y1="13.27" x2="26.75" y2="15.13"/>
    <line class="st4" x1="26.75" y1="15.13" x2="26.83" y2="14.68"/>
    <line class="st4" x1="26.83" y1="14.68" x2="26.96" y2="13.29"/>
    <line class="st4" x1="26.96" y1="13.29" x2="26.72" y2="12.41"/>
    <line class="st4" x1="26.72" y1="12.41" x2="28.27" y2="8.52"/>
    <line class="st4" x1="28.27" y1="8.52" x2="28.87" y2="6.93"/>
    <line class="st4" x1="28.87" y1="6.93" x2="29" y2="6.6"/>
    <line class="st4" x1="29" y1="6.6" x2="29.5" y2="5.46"/>
    <line class="st4" x1="29.5" y1="5.46" x2="29.52" y2="5.41"/>
    <line class="st4" x1="29.52" y1="5.41" x2="29.89" y2="4.44"/>
    <line class="st4" x1="29.89" y1="4.44" x2="29.65" y2="3.75"/>
    <line class="st4" x1="29.65" y1="3.75" x2="29.65" y2="3.75"/>
    <line class="st4" x1="29.65" y1="3.75" x2="29.65" y2="3.76"/>
    <line class="st4" x1="29.65" y1="3.76" x2="29.51" y2="4.14"/>
    <line class="st4" x1="29.51" y1="4.14" x2="29.43" y2="4.4"/>
    <line class="st4" x1="29.43" y1="4.4" x2="27.99" y2="8.16"/>
    <line class="st4" x1="27.99" y1="8.16" x2="27.1" y2="10.41"/>
    <line class="st4" x1="27.1" y1="10.41" x2="26.89" y2="11.14"/>
    <line class="st4" x1="26.89" y1="11.14" x2="26.6" y2="12.05"/>
    <line class="st4" x1="26.6" y1="12.05" x2="26.05" y2="12.52"/>
    <line class="st4" x1="26.05" y1="12.52" x2="25.43" y2="12.11"/>
    <line class="st4" x1="25.43" y1="12.11" x2="25.08" y2="11.19"/>
    <line class="st4" x1="25.08" y1="11.19" x2="24.89" y2="10.61"/>
    <line class="st4" x1="24.89" y1="10.61" x2="24.28" y2="9.13"/>
    <line class="st4" x1="24.28" y1="9.13" x2="23.54" y2="7.04"/>
    <line class="st4" x1="23.54" y1="7.04" x2="23.47" y2="6.81"/>
    <line class="st4" x1="23.47" y1="6.81" x2="22.21" y2="3.82"/>
    <line class="st4" x1="22.21" y1="3.82" x2="22.21" y2="3.82"/>
    <line class="st4" x1="22.21" y1="3.82" x2="22.11" y2="3.87"/>
    <line class="st4" x1="22.11" y1="3.87" x2="22.11" y2="3.87"/>
    <line class="st4" x1="22.11" y1="3.87" x2="23.09" y2="6.97"/>
    <line class="st4" x1="23.09" y1="6.97" x2="23.85" y2="8.88"/>
    <line class="st4" x1="23.85" y1="8.88" x2="25.24" y2="12.55"/>
    <line class="st4" x1="25.24" y1="12.55" x2="25.17" y2="12.69"/>
    <line class="st4" x1="25.17" y1="12.69" x2="25.08" y2="12.88"/>
    <line class="st4" x1="25.08" y1="12.88" x2="25.06" y2="14.04"/>
    <line class="st4" x1="25.06" y1="14.04" x2="25.1" y2="14.26"/>
    <line class="st4" x1="25.1" y1="14.26" x2="25.16" y2="15.16"/>
    <line class="st4" x1="25.16" y1="15.16" x2="22.03" y2="8.75"/>
    <line class="st4" x1="22.03" y1="8.75" x2="20.4" y2="6.09"/>
    <line class="st4" x1="20.4" y1="6.09" x2="18.57" y2="3.61"/>
    <line class="st4" x1="18.57" y1="3.61" x2="16.22" y2="1.19"/>
    <line class="st4" x1="16.22" y1="1.19" x2="12.67" y2="-1.35"/>
    <line class="st4" x1="12.67" y1="-1.35" x2="9.48" y2="-3.16"/>
    <line class="st4" x1="9.48" y1="-3.16" x2="7.82" y2="-3.91"/>
    <line class="st4" x1="7.82" y1="-3.91" x2="6.1" y2="-4.46"/>
    <line class="st4" x1="6.1" y1="-4.46" x2="4.2" y2="-4.68"/>
    <line class="st4" x1="4.2" y1="-4.68" x2="4.18" y2="-4.68"/>
    <line class="st4" x1="4.18" y1="-4.68" x2="2.35" y2="-4.11"/>
    <line class="st4" x1="2.35" y1="-4.11" x2="1.5" y2="-2.54"/>
    <line class="st4" x1="1.5" y1="-2.54" x2="1.01" y2=".42"/>
    <line class="st4" x1="1.01" y1=".42" x2="1.16" y2="2.66"/>
    <line class="st4" x1="1.16" y1="2.66" x2="1.84" y2="4.19"/>
    <line class="st4" x1="1.84" y1="4.19" x2="2.24" y2="4.91"/>
    <line class="st4" x1="2.24" y1="4.91" x2="2.7" y2="6.22"/>
    <line class="st4" x1="2.7" y1="6.22" x2="3.4" y2="10.37"/>
    <line class="st4" x1="3.4" y1="10.37" x2="3.88" y2="13.55"/>
    <line class="st4" x1="3.88" y1="13.55" x2="4.21" y2="14.88"/>
    <line class="st4" x1="4.21" y1="14.88" x2="4.74" y2="16.13"/>
    <line class="st4" x1="4.74" y1="16.13" x2="5.85" y2="17.27"/>
    <line class="st4" x1="5.85" y1="17.27" x2="6.79" y2="17.72"/>
    <line class="st4" x1="6.79" y1="17.72" x2="7.79" y2="17.97"/>
    <line class="st4" x1="7.79" y1="17.97" x2="9.53" y2="18.18"/>
    <line class="st4" x1="9.53" y1="18.18" x2="10.4" y2="18.24"/>
    <line class="st4" x1="10.4" y1="18.24" x2="13.5" y2="18.57"/>
    <line class="st4" x1="13.5" y1="18.57" x2="13.61" y2="18.61"/>
    <line class="st4" x1="13.61" y1="18.61" x2="12.37" y2="19.5"/>
    <line class="st4" x1="12.37" y1="19.5" x2="10.23" y2="21.09"/>
    <line class="st4" x1="10.23" y1="21.09" x2="7.09" y2="24.25"/>
    <line class="st4" x1="7.09" y1="24.25" x2="6.38" y2="25.4"/>
    <line class="st4" x1="6.38" y1="25.4" x2="6.38" y2="25.4"/>
    <line class="st4" x1="6.38" y1="25.4" x2="6.5" y2="28.17"/>
    <line class="st4" x1="6.5" y1="28.17" x2="7.72" y2="35.15"/>
    <line class="st4" x1="7.72" y1="35.15" x2="7.72" y2="35.16"/>
    <line class="st4" x1="7.72" y1="35.16" x2="9.07" y2="40.42"/>
    <line class="st4" x1="9.07" y1="40.42" x2="10.23" y2="43.09"/>
    <line class="st4" x1="10.23" y1="43.09" x2="11.31" y2="44.41"/>
    <line class="st4" x1="11.31" y1="44.41" x2="12.62" y2="45.22"/>
    <line class="st4" x1="12.62" y1="45.22" x2="13.24" y2="45.32"/>
    <line class="st4" x1="13.24" y1="45.32" x2="13.55" y2="45.31"/>
    <line class="st4" x1="13.55" y1="45.31" x2="15.41" y2="44.58"/>
    <line class="st4" x1="15.41" y1="44.58" x2="17.31" y2="42.86"/>
    <line class="st4" x1="17.31" y1="42.86" x2="19.52" y2="39.22"/>
    <line class="st4" x1="19.52" y1="39.22" x2="21.11" y2="35.38"/>
    <line class="st4" x1="21.11" y1="35.38" x2="22.21" y2="31.69"/>
    <line class="st4" x1="22.21" y1="31.69" x2="22.61" y2="29.99"/>
    <line class="st4" x1="22.61" y1="29.99" x2="23.32" y2="27.15"/>
    <line class="st4" x1="23.32" y1="27.15" x2="24.69" y2="23.51"/>
    <line class="st4" x1="24.69" y1="23.51" x2="24.83" y2="25.59"/>
    <line class="st4" x1="24.83" y1="25.59" x2="24.83" y2="25.85"/>
    <line class="st4" x1="24.83" y1="25.85" x2="24.82" y2="26.42"/>
    <line class="st4" x1="24.82" y1="26.42" x2="24.83" y2="28.29"/>
    <line class="st4" x1="24.83" y1="28.29" x2="25.06" y2="29.54"/>
    <line class="st4" x1="25.06" y1="29.54" x2="25.55" y2="30.16"/>
    <line class="st4" x1="25.55" y1="30.16" x2="25.97" y2="30.27"/>
    <line class="st4" x1="25.97" y1="30.27" x2="26.44" y2="30.16"/>
    <line class="st4" x1="26.44" y1="30.16" x2="27" y2="29.38"/>
    <line class="st4" x1="27" y1="29.38" x2="27.17" y2="27.94"/>
    <line class="st4" x1="27.17" y1="27.94" x2="27.15" y2="26.66"/>
    <line class="st4" x1="27.15" y1="26.66" x2="27.13" y2="25.24"/>
    <line class="st4" x1="27.13" y1="25.24" x2="27.41" y2="23.5"/>
    <line class="st4" x1="27.41" y1="23.5" x2="28.99" y2="28.55"/>
    <line class="st4" x1="28.99" y1="28.55" x2="29" y2="28.62"/>
    <line class="st4" x1="29" y1="28.62" x2="29.24" y2="29.44"/>
    <line class="st4" x1="29.24" y1="29.44" x2="30.65" y2="34.26"/>
    <line class="st4" x1="30.65" y1="34.26" x2="32.75" y2="39.74"/>
    <line class="st4" x1="32.75" y1="39.74" x2="33.87" y2="41.74"/>
    <line class="st4" x1="33.87" y1="41.74" x2="35.24" y2="43.5"/>
    <line class="st4" x1="35.24" y1="43.5" x2="36.94" y2="44.77"/>
    <line class="st4" x1="36.94" y1="44.77" x2="38.56" y2="45.3"/>
    <line class="st4" x1="38.56" y1="45.3" x2="38.88" y2="45.32"/>
    <line class="st4" x1="38.88" y1="45.32" x2="39.81" y2="45.12"/>
    <line class="st4" x1="39.81" y1="45.12" x2="41.28" y2="43.78"/>
    <line class="st4" x1="41.28" y1="43.78" x2="42.27" y2="41.99"/>
    <line class="st4" x1="42.27" y1="41.99" x2="43.57" y2="38.16"/>
    <line class="st4" x1="43.57" y1="38.16" x2="44.58" y2="34.03"/>
    <line class="st4" x1="44.58" y1="34.03" x2="45.6" y2="25.4"/>
    <line class="st4" x1="45.6" y1="25.4" x2="45.6" y2="25.39"/>
    <line class="st4" x1="45.6" y1="25.39" x2="45.6" y2="25.39"/>
    <line class="st4" x1="45.6" y1="25.39" x2="44.51" y2="23.73"/>
    <line class="st4" x1="44.51" y1="23.73" x2="43.21" y2="22.27"/>
    <line class="st4" x1="43.21" y1="22.27" x2="41.47" y2="20.8"/>
    <line class="st4" x1="41.47" y1="20.8" x2="40.6" y2="20.21"/>
    <line class="st4" x1="40.6" y1="20.21" x2="38.34" y2="18.46"/>
    <line class="st4" x1="38.34" y1="18.46" x2="39.85" y2="18.37"/>
    <line class="st4" x1="39.85" y1="18.37" x2="40.92" y2="18.31"/>
    <line class="st4" x1="40.92" y1="18.31" x2="44.72" y2="17.82"/>
    <line class="st4" x1="44.72" y1="17.82" x2="46.61" y2="16.93"/>
    <line class="st4" x1="46.61" y1="16.93" x2="47.57" y2="15.37"/>
    <line class="st4" x1="47.57" y1="15.37" x2="48.19" y2="12.94"/>
    <line class="st4" x1="48.19" y1="12.94" x2="48.28" y2="12.48"/>
    <line class="st4" x1="48.28" y1="12.48" x2="48.53" y2="11.12"/>
    <line class="st4" x1="48.53" y1="11.12" x2="48.76" y2="9.42"/>
    <line class="st4" x1="48.76" y1="9.42" x2="48.88" y2="8.47"/>
    <line class="st4" x1="48.88" y1="8.47" x2="49.76" y2="4.73"/>
    <line class="st4" x1="49.76" y1="4.73" x2="50.08" y2="4.03"/>
    <line class="st4" x1="50.08" y1="4.03" x2="50.67" y2="2.65"/>
    <line class="st4" x1="50.67" y1="2.65" x2="51" y2=".83"/>
    <line class="st4" x1="51" y1=".83" x2="50.83" y2="-1.43"/>
    <rect fill="blue" fill-opacity="0.2" stroke="blue" stroke-opacity="0.6" stroke-width="0.2" x="1" y="3.32" width="4" height="4"/>
    <rect fill="blue" fill-opacity="0.2" stroke="blue" stroke-opacity="0.6" stroke-width="0.2"  x="17" y="3.32" width="20" height="4"/>
    <rect fill="blue" fill-opacity="0.2" stroke="blue" stroke-opacity="0.6" stroke-width="0.2"  x="49" y="3.32" width="4" height="4"/>
    <circle class="st6" cx="1.5" cy="3.32" r=".3"/>
    <circle class="st6" cx="18.3" cy="3.32" r=".3"/>
    <circle class="st6" cx="33.6" cy="3.32" r=".3"/>
    <circle class="st6" cx="50.4" cy="3.32" r=".3"/>
  </g>
  <text class="st7" transform="translate(2.32 2.32)"><tspan x="0" y="0">0</tspan></text>
  <text class="st7" transform="translate(24.91 2.35)"><tspan x="0" y="0">-1</tspan></text>
  <text class="st7" transform="translate(49.35 2.11)"><tspan x="0" y="0">-1</tspan></text>
</svg>