<svg xmlns="http://www.w3.org/2000/svg" width="260" height="260" fill="none">
<path d="M222.178816,0.070912 L221.27232,1.417728 C216.734976,8.109312 212.496896,15.149056 208.57984,22.500608 C206.808832,25.739264 205.219072,29.146624 203.823104,32.694784 C202.701568,35.374592 201.810688,38.213888 201.16736,41.158912 C200.935936,41.959936 200.81664,42.810368 200.81536,43.66848 L200.81536,43.725312 C199.46112,44.276224 198.546688,45.954816 198.57536,47.836928 C198.548736,49.59872 199.341824,51.2 200.569856,51.863296 C200.97536,57.123584 201.423104,68.054784 201.316608,83.055104 L201.273856,85.068544 C200.969984,96.310272 199.40992,107.429376 196.644864,118.0608 C196.474368,117.919232 196.324864,117.8624 196.218368,117.87648 C195.898368,117.919232 195.034368,119.577856 194.191872,121.435392 C193.57312,122.711296 192.922624,124.199936 192.549376,125.561088 C192.346368,126.1888 192.237824,126.863104 192.229376,127.546112 C192.208384,127.966976 192.244736,128.389632 192.335872,128.7936 C192.442624,129.3184 192.570624,129.616128 192.570624,129.616128 C192.559872,129.649152 192.549376,129.682176 192.538624,129.7152 C192.379648,129.992704 192.276736,130.319872 192.239872,130.665216 L192.111872,131.076352 C191.27552,133.618176 190.357504,136.111104 189.360128,138.548224 L188.53888,140.561408 C188.294144,141.108224 188.045312,141.651712 187.792384,142.191872 C187.7184,142.117376 187.639808,142.050816 187.557632,141.993472 C187.138048,141.90336 186.708224,142.024704 186.352384,142.333696 C185.851136,142.83008 184.741888,145.084416 181.040896,147.551232 C179.7824,148.38784 178.6304,148.869888 177.627904,149.167616 C179.053056,139.484928 179.93728,129.675264 180.272896,119.819008 C180.439552,114.805504 180.210688,109.782784 179.5904,104.832768 C179.6224,104.690944 179.6224,104.591616 179.6224,104.591616 L179.569152,104.73344 C179.287552,102.543872 178.917376,100.37632 178.459904,98.24 C177.01376,91.013888 174.375936,84.306176 170.737664,78.603264 C164.00768,67.91296 154.781696,62.440192 146.675712,62.085888 L145.342464,62.057472 C145.342464,61.944064 145.342464,61.844736 145.363968,61.745664 C145.587968,60.356096 145.619968,59.94496 144.435968,61.291776 C144.224768,61.53472 144.022016,61.790208 143.827968,62.057472 C143.26272,62.071552 142.75072,62.114048 142.27072,62.1568 C142.23104,61.648128 142.220544,61.136128 142.23872,60.625408 C142.281472,59.547904 142.49472,58.82496 141.310976,60.171776 C140.692224,60.818688 140.177408,61.623808 139.796224,62.53952 C139.262976,62.652928 138.942976,62.752256 138.942976,62.752256 L139.422976,62.72384 L138.921728,62.837248 C138.751232,62.241792 138.35648,61.348608 138.409728,60.568832 C138.51648,58.895872 138.86848,58.583808 138.015232,59.647232 C136.969984,60.923136 135.860736,62.851328 135.668736,63.886336 L134.644736,64.311808 C134.452736,64.056576 133.855488,63.319296 133.727488,61.78816 C133.588992,60.228608 133.599488,59.434496 132.87424,61.06496 C132.2112,62.60224 131.74272,64.27392 131.487744,66.013184 C131.146496,66.22592 130.815744,66.4384 130.495744,66.665216 C130.085632,65.96608 129.870592,65.099008 129.887744,64.21248 C129.834496,62.17088 130.314496,60.512 129.173248,63.248384 C128.465152,65.067264 127.941376,67.00288 127.616,69.0048 C127.232,69.359104 126.858752,69.727744 126.496,70.1248 C126.44864,69.322752 126.420224,68.518912 126.410752,67.71456 C126.389504,65.70112 126.634752,63.532032 125.696256,67.36 C125.419008,68.480256 125.131008,70.082304 124.949504,71.911168 C120.640512,77.369856 118.016768,84.91264 118.080768,94.199296 L118.080768,94.298368 C118.070272,95.957248 118.134272,97.531136 118.230272,98.97728 C118.44352,102.351616 118.838016,105.187072 119.371264,107.554816 C118.358016,109.398016 118.272768,117.32352 119.264768,119.15264 C120.043264,120.6272 124.555008,124.114944 125.514752,124.809728 C125.906432,125.1648 126.246144,125.61152 126.517504,126.128128 C127.744,128.7936 127.744,134.167296 126.805504,136.93184 C125.664256,140.306176 127.946752,140.972544 129.845248,141.468928 C131.743744,141.979392 134.271488,141.142784 134.783488,139.795968 C135.284736,138.448896 133.140992,135.414784 132.255744,129.190656 C131.359744,122.966528 133.64224,122.470144 133.64224,122.470144 C133.64224,122.470144 134.655488,122.810624 136.169984,126.00064 C137.343232,128.481792 138.591232,130.4384 139.753728,131.856128 C139.157248,132.836608 138.43072,133.662976 137.609984,134.294784 C138.889728,134.365696 140.169728,133.571584 140.852224,133.061376 C141.09568,133.292032 141.348608,133.505024 141.609472,133.699328 C141.437952,133.943808 141.260032,134.180096 141.076224,134.408192 C141.467648,134.36032 141.853952,134.255616 142.228224,134.096384 C142.513664,134.258432 142.815488,134.363648 143.123968,134.408192 C144.777216,134.578432 149.203456,129.190656 149.203456,128.184064 C149.203456,127.928832 149.043456,127.617024 148.798208,127.29088 C148.350208,126.652928 147.518464,125.872896 146.590464,124.781312 C146.167808,124.274432 145.775616,123.724544 145.417216,123.136512 C144.551168,121.592064 144.029952,119.75424 143.913216,117.833984 L143.913216,117.69216 L143.881216,117.252608 C143.881216,117.252608 143.955968,117.153536 144.051968,116.969216 L144.051968,117.025792 L144.09472,116.884224 C144.649216,115.749888 145.694464,111.510528 139.081728,101.600256 C136.310784,97.453056 132.964864,94.0544 129.226496,91.5904 C128.778496,84.898304 130.826496,78.64576 135.903232,75.569152 L135.849984,75.640064 L135.935232,75.555072 C138.35648,74.108928 141.449472,73.357312 145.289216,73.62688 C152.648704,74.137088 158.30144,78.716672 162.247936,85.607168 C167.72992,95.702016 170.119168,110.84416 168.380672,126.099968 C167.655424,127.021312 167.79392,127.163136 168.24192,127.191552 C168.075776,128.489216 167.880192,129.780224 167.655424,131.062272 L167.367424,131.274752 C166.055424,132.324096 166.610176,132.30976 167.367424,132.579328 L167.303424,132.86272 C167.090176,133.78432 166.844672,134.70592 166.599424,135.599104 C166.285312,135.72096 165.975552,135.86304 165.671424,136.024576 C164.23168,136.775936 164.818176,136.875264 165.543424,137.314816 L166.012928,137.626624 C165.671424,138.76096 165.308928,139.89504 164.93568,140.98688 C164.648192,141.046272 164.363264,141.126912 164.082432,141.227776 C162.56768,141.73824 163.14368,141.936896 163.826432,142.503936 C163.972864,142.62272 164.1152,142.750464 164.252928,142.886656 C163.88608,143.906816 163.505664,144.918528 163.11168,145.920768 C162.56,145.9648 162.01344,146.083584 161.479936,146.275328 C159.986688,146.785792 160.551936,146.984192 161.234688,147.551232 C161.597184,147.83488 161.874432,148.132608 162.098432,148.38784 C161.76768,149.172992 161.430016,149.952768 161.085184,150.727168 L160.839936,151.237632 C160.098304,151.177728 159.354368,151.292928 158.642688,151.577856 C157.128192,152.08832 157.704192,152.28672 158.386688,152.854016 C158.783232,153.178368 159.154688,153.553408 159.495936,153.974016 C159.056384,154.832128 158.608384,155.683072 158.152192,156.52608 C157.348864,156.256256 156.510208,156.232192 155.698944,156.455168 C154.1632,156.738816 154.717696,157.022208 155.346944,157.674496 C156.072448,158.425856 156.424192,159.078144 156.605696,159.347456 L155.944448,160.538368 C155.474944,159.716096 154.3552,158.780416 153.320448,157.801984 C152.385792,156.934656 151.336448,156.309248 150.227456,155.958784 C149.715456,155.958784 148.10496,159.758592 139.38048,158.752 C130.644992,157.745408 130.101248,156.625152 129.333248,156.625152 C128.586496,156.625152 126.954752,157.433344 126.901504,157.46176 L126.538752,157.178112 C122.957056,154.241536 119.496192,151.051776 116.171776,147.622144 C111.222784,142.376192 108.492288,138.448896 108.492288,138.448896 C108.492288,138.448896 109.953536,136.676608 107.99104,134.422272 C106.855424,133.009408 105.6512,131.697408 104.386048,130.494976 C103.566848,129.633536 102.704384,128.847104 101.8048,128.141568 C101.48224,127.550464 101.169408,126.950144 100.866304,126.340864 C99.505408,123.42784 98.2144,120.458496 96.99456,117.436928 C96.05376,114.97984 95.164416,112.488192 94.328064,109.965312 C92.621568,104.861184 91.44832,100.29568 90.637824,96.297472 C89.839104,92.00128 89.311232,87.623936 89.059328,83.211264 C89.027328,82.0672 89.041408,80.921856 89.101824,79.780096 C90.162944,78.678528 90.784256,76.989952 90.787072,75.200512 C90.784,72.275712 89.150464,69.807104 86.968832,69.430016 C84.792832,63.376128 76.494848,48.48896 45.56416,17.254656 L44.209664,15.865344 L44.262912,15.92192 L43.878912,15.5392 C75.3856,51.409664 81.529088,65.431808 83.150336,71.287296 C83.048448,71.436544 82.952192,71.592704 82.862336,71.755264 C82.798336,71.693824 82.734592,71.632384 82.670336,71.570944 C82.862336,71.570944 82.937088,71.500032 82.937088,71.500032 C82.937088,71.500032 75.7696,63.758848 63.877376,54.061056 C51.9424,44.320768 45.222912,42.023936 43.825664,41.62688 L43.537664,41.541888 C43.537664,41.541888 45.734912,44.23552 45.393664,45.582592 C45.286912,46.036224 43.601664,45.8944 40.903168,45.979392 C38.308096,45.99296 35.71968,46.325248 33.170688,46.971904 C27.1936,48.375296 21.501696,51.417088 16.457216,55.904256 C2.538496,68.225024 0,76.9728 0,76.9728 C0,76.9728 5.86624,66.084096 16.851968,58.4704 C16.70272,63.248384 16.35072,86.386944 21.598208,116.884224 C27.261696,149.777152 37.927424,180.501248 38.812672,183.024896 C38.855424,185.548544 38.983424,186.88128 38.983424,186.88128 C38.983424,186.88128 40.56192,161.502464 47.046656,135.173888 C48.913152,139.186176 55.131392,151.010816 69.188864,164.891136 C86.552832,182.046464 94.466816,186.668544 94.786816,186.838784 C94.797312,189.064704 94.840064,190.241536 94.840064,190.241536 C94.840064,190.241536 94.893312,188.823808 95.032064,186.51264 C95.501312,185.59104 98.21056,180.416 100.919552,177.013248 C102.684672,174.714624 104.613632,172.649216 106.67904,170.845952 C107.020288,172.405504 107.35104,173.73824 107.67104,174.758912 C107.457792,173.38368 107.28704,172.06528 107.116288,170.760704 C108.257536,170.902528 112.854528,171.69664 119.979264,176.3328 C123.63776,178.714624 126.474752,181.933056 128.490752,184.768768 C128.439808,184.794112 128.390144,184.822528 128.341248,184.85376 C128.292608,184.885248 129.653248,186.441728 131.210496,190.56768 C128.584448,190.43456 125.958912,190.836224 123.424256,191.758592 C123.100672,190.848768 122.752,189.954816 122.379008,189.078784 C122.311168,188.41728 122.171136,187.772672 121.963264,187.164928 C121.675264,186.299904 120.950016,185.746944 120.214016,185.179904 C119.888384,184.758016 119.513856,184.408576 119.104768,184.144896 C118.857984,183.856896 118.658304,183.50464 118.518016,183.109888 C117.622272,180.501248 110.006784,183.280128 108.47104,185.661952 C106.604544,188.55424 106.241792,192.24064 106.977792,194.28224 C107.201792,194.920192 107.724288,195.444736 108.449536,195.841792 C108.47104,198.975232 109.910784,206.47552 112.758528,211.919872 C112.213504,208.805888 111.828736,205.646336 111.606784,202.462976 C111.510784,200.19456 111.606784,198.578176 111.766784,197.500672 C112.268032,202.151168 113.622528,207.198464 117.920768,213.451008 C115.275776,205.794816 115.574272,201.229568 115.841024,197.23136 L115.937024,196.607488 L116.001024,196.593152 C116.385024,200.322048 117.51552,204.164352 121.142016,210.260992 C121.088256,210.1312 121.038592,209.998848 120.992512,209.863936 L121.142016,210.161664 C119.35744,205.686272 118.73152,200.553984 119.360768,195.5584 L119.446016,195.515648 C119.936768,195.94112 120.416512,196.50816 120.875264,197.302272 C122.240512,199.740928 122.880512,202.25024 123.136512,203.965952 C122.843392,205.83552 123.099136,207.783168 123.851008,209.410304 C121.238016,211.948032 118.678016,214.315776 116.171776,216.513536 C113.718528,218.626048 110.945536,220.951296 108.097536,223.177216 C106.604544,224.311552 105.121792,225.417216 103.682048,226.438144 L102.242048,225.346304 L102.263552,225.346304 L102.178048,225.289728 C91.83232,217.364224 84.153088,212.075776 75.3216,209.948928 C65.391872,207.581184 56.261888,213.961472 54.171392,225.289728 C52.8064,232.812032 55.167744,240.659712 60.05888,244.855552 L60.18688,244.96896 C60.325632,245.110784 60.464384,245.209856 60.613632,245.3376 L61.253632,245.847808 L61.27488,245.847808 C63.322624,247.407616 65.79712,248.556032 68.644864,249.208064 L68.943616,249.278976 L69.007616,249.278976 C70.461696,249.602048 71.929088,249.810432 73.401856,249.902848 C83.801088,250.569216 96.397312,244.118272 108.844288,235.980032 C109.910784,236.745728 110.998784,237.511168 112.108032,238.33344 C139.273728,258.225408 155.816448,260.805888 177.745152,248.655104 C172.390912,250.796032 164.860928,253.702656 155.410944,253.532416 C155.345152,253.484544 155.272448,253.45536 155.197696,253.447424 L155.208448,253.532416 C152.896,253.478656 150.58816,253.242112 148.29696,252.823552 L148.29696,252.809472 L147.97696,252.76672 L147.97696,252.724224 C147.973376,252.733696 147.969792,252.743168 147.966464,252.75264 C142.256384,251.655424 136.677888,249.577472 131.370496,246.571008 C128.655104,245.048576 126.002688,243.335424 123.424256,241.438464 C119.827456,238.797568 116.250624,236.108288 112.694528,233.371136 C116.406272,230.847488 120.075264,228.224512 123.63776,225.644288 C127.424,222.96448 130.804992,220.511744 133.428992,218.555136 L133.524992,218.498304 L133.599488,218.484224 C133.599488,218.484224 134.484736,218.228992 135.305984,217.888768 C137.119232,217.151488 139.678976,215.776256 142.71872,213.87648 C143.017472,215.535104 143.731968,216.924672 144.79872,217.463296 C147.30496,218.753536 149.139456,217.846272 150.366208,216.017152 L150.558208,215.875584 L151.059456,215.350784 C151.592704,214.925568 152.200704,214.401024 152.7232,214.07488 C152.909824,213.964544 153.09824,213.860608 153.288448,213.762816 C153.7152,213.621248 154.120448,213.436928 154.525696,213.238272 L154.877696,213.096448 C153.3312,217.307392 153.9072,221.334016 153.9072,221.334016 C154.365696,216.073984 156.253696,212.713728 158.088192,211.196672 C158.770688,210.813952 159.474688,210.487808 160.22144,210.246656 C160.903936,210.246656 161.458432,210.5728 161.757184,211.239168 C162.50368,212.940544 164.07168,213.989888 165.639424,214.44352 C165.895424,216.570112 165.15968,220.17152 161.373184,226.721792 L162.333184,225.842688 L162.37568,225.800192 L163.14368,225.048576 C164.668928,223.51744 165.831424,222.071296 166.706176,220.72448 C167.582208,219.464448 168.273152,217.997824 168.743168,216.400128 C168.871168,219.235584 168.284672,223.588352 165.426176,231.08864 C165.426176,231.08864 168.807168,227.175424 170.908416,222.156288 C170.972416,224.864256 170.801664,228.437248 170.236416,233.286144 C173.91616,223.744256 173.702912,217.902848 172.785664,214.486016 L172.678912,213.975552 C172.660992,213.66528 172.625408,213.357312 172.57216,213.053952 L173.02016,212.24576 C174.278912,209.892352 172.508416,207.368704 171.377664,206.361856 C170.737664,205.794816 169.244672,204.178432 166.535424,204.135936 C164.13568,200.307968 161.095936,202.009344 156.317696,206.191872 C155.752448,206.688512 155.160832,207.129088 154.5472,207.510528 C154.389248,206.935296 154.192896,206.380288 153.960448,205.851648 C155.666944,204.490496 157.43744,203.030016 159.22944,201.4848 C162.610432,198.54976 165.12768,195.58656 166.994176,192.765184 C172.433664,185.435136 174.353408,178.303488 179.899648,172.26368 L179.760896,172.27776 L180.400896,171.824128 C189.509632,165.330688 194.34112,164.068864 194.682368,163.983616 L194.650368,165.7984 L194.842368,164.026112 C196.74368,165.263872 198.477312,166.912 199.972608,168.903424 C201.502208,170.947072 202.802432,173.27232 203.8336,175.808256 L204.302848,180.075776 C204.302848,180.075776 204.302848,178.416896 204.196352,175.39712 C205.828096,173.241856 215.075328,160.5952 222.584064,140.41984 C229.986048,120.513792 232.652544,104.648448 233.431296,98.962944 C236.408832,110.38208 238.77888,122.065152 240.524032,133.926144 C242.268928,145.787136 240.502528,132.040448 240.19328,128.623616 C241.227776,123.859712 245.696768,102.082304 246.880768,75.370752 C247.947264,51.537408 246.18752,35.955712 245.38752,30.369536 C252.299008,37.982976 256,48.900096 256,48.900096 C256,48.900096 255.573248,46.589184 253.994752,42.704384 L254.208256,43.087104 C254.208256,43.087104 251.691008,36.63616 247.339264,30.256128 C246.792192,29.42976 246.234112,28.616704 245.664768,27.817472 C241.05728,21.309696 236.556288,19.06944 233.185792,18.289664 C232.119296,18.006272 231.0208,17.864448 229.9008,17.864448 L229.698304,17.864448 C228.365056,17.821952 227.554304,17.892864 227.490304,17.495808 C227.277056,16.148736 228.663552,13.455104 228.663552,13.455104 C228.663552,13.455104 226.775808,14.107136 222.754816,18.13376 C220.301568,20.501504 217.208576,23.946752 213.656832,28.909056 C210.32192,33.403392 207.15392,38.111488 204.164352,43.016192 L203.364352,44.363264 C203.28704,44.2752 203.20512,44.194816 203.119104,44.122112 C203.9296,39.42912 206.980096,28.271104 222.189568,0 Z M127.146752,157.64608 C127.18976,157.673472 127.232512,157.701632 127.274752,157.731072 L127.146752,157.64608 Z M124.34176,194.594048 C125.280256,195.21792 126.368256,196.097024 127.573248,197.344768 L127.52,197.344768 C126.929152,197.543168 126.369536,197.879296 125.866752,198.33728 C125.31328,197.363712 124.86144,196.295424 124.523008,195.161344 L124.34176,194.594048 Z M72.55936,216.85376 C73.967104,216.85376 75.503104,217.05216 77.166848,217.534208 L77.380096,217.60512 L77.5616,217.661952 C78.734848,218.044672 79.940096,218.541056 81.15584,219.108096 L81.76384,219.405824 C83.801088,220.454912 85.976832,221.617664 88.280576,222.921984 C91.693568,224.892672 94.882816,226.84928 97.21856,228.238848 L99.170304,229.486336 C96.813312,230.989312 94.648064,232.265216 93.01632,233.186816 C82.201088,239.085056 73.497856,240.786432 68.079616,238.730496 C58.000384,234.916608 59.973632,216.953088 72.55936,216.86784 Z" stroke="black" stroke-width="0.3"/>
  <rect x="0" y="0" width="260" height="260" stroke="black"/>
</svg>