<svg viewBox="0 0 10 10" xmlns="http://www.w3.org/2000/svg">
<path d="M0,1 L10,1" stroke="grey" stroke-opacity="0.3" stroke-width="0.1" vectorEffect="non-scaling-stroke"/>
<path d="M0,2 L10,2" stroke="grey" stroke-opacity="0.3" stroke-width="0.1" vectorEffect="non-scaling-stroke"/>
<path d="M0,3 L10,3" stroke="grey" stroke-opacity="0.3" stroke-width="0.1" vectorEffect="non-scaling-stroke"/>
<path d="M0,4 L10,4" stroke="grey" stroke-opacity="0.3" stroke-width="0.1" vectorEffect="non-scaling-stroke"/>
<path d="M0,5 L10,5" stroke="grey" stroke-opacity="0.3" stroke-width="0.1" vectorEffect="non-scaling-stroke"/>
<path d="M0,6 L10,6" stroke="grey" stroke-opacity="0.3" stroke-width="0.1" vectorEffect="non-scaling-stroke"/>
<path d="M0,7 L10,7" stroke="grey" stroke-opacity="0.3" stroke-width="0.1" vectorEffect="non-scaling-stroke"/>
<path d="M0,8 L10,8" stroke="grey" stroke-opacity="0.3" stroke-width="0.1" vectorEffect="non-scaling-stroke"/>
<path d="M0,9 L10,9" stroke="grey" stroke-opacity="0.3" stroke-width="0.1" vectorEffect="non-scaling-stroke"/>
<path d="M1,0 L1,10" stroke="grey" stroke-opacity="0.3" stroke-width="0.1" vectorEffect="non-scaling-stroke"/>
<path d="M2,0 L2,10" stroke="grey" stroke-opacity="0.3" stroke-width="0.1" vectorEffect="non-scaling-stroke"/>
<path d="M3,0 L3,10" stroke="grey" stroke-opacity="0.3" stroke-width="0.1" vectorEffect="non-scaling-stroke"/>
<path d="M4,0 L4,10" stroke="grey" stroke-opacity="0.3" stroke-width="0.1" vectorEffect="non-scaling-stroke"/>
<path d="M5,0 L5,10" stroke="grey" stroke-opacity="0.3" stroke-width="0.1" vectorEffect="non-scaling-stroke"/>
<path d="M6,0 L6,10" stroke="grey" stroke-opacity="0.3" stroke-width="0.1" vectorEffect="non-scaling-stroke"/>
<path d="M7,0 L7,10" stroke="grey" stroke-opacity="0.3" stroke-width="0.1" vectorEffect="non-scaling-stroke"/>
<path d="M8,0 L8,10" stroke="grey" stroke-opacity="0.3" stroke-width="0.1" vectorEffect="non-scaling-stroke"/>
<path d="M9,0 L9,10" stroke="grey" stroke-opacity="0.3" stroke-width="0.1" vectorEffect="non-scaling-stroke"/>
<rect fill="red" fill-opacity="0" height="1" width="1" x="4" y="0"/>
<rect fill="red" fill-opacity="0" height="1" width="1" x="4" y="1"/>
<rect fill="red" fill-opacity="0" height="1" width="1" x="4" y="2"/>
<rect fill="red" fill-opacity="0" height="1" width="1" x="4" y="3"/>
<rect fill="red" fill-opacity="0" height="1" width="1" x="5" y="0"/>
<rect fill="red" fill-opacity="0" height="1" width="1" x="5" y="1"/>
<rect fill="red" fill-opacity="0" height="1" width="1" x="5" y="2"/>
<rect fill="red" fill-opacity="0" height="1" width="1" x="5" y="3"/>
<rect fill="red" fill-opacity="0" height="1" width="1" x="6" y="0"/>
<rect fill="red" fill-opacity="0" height="1" width="1" x="6" y="1"/>
<rect fill="red" fill-opacity="0" height="1" width="1" x="6" y="2"/>
<rect fill="red" fill-opacity="0.5019608" height="1" width="1" x="6" y="3"/>
<rect fill="red" fill-opacity="0" height="1" width="1" x="7" y="0"/>
<rect fill="red" fill-opacity="0" height="1" width="1" x="7" y="1"/>
<rect fill="red" fill-opacity="0.5019608" height="1" width="1" x="7" y="2"/>
<rect fill="red" fill-opacity="1" height="1" width="1" x="7" y="3"/>
<rect fill="red" fill-opacity="0" height="1" width="1" x="8" y="0"/>
<rect fill="red" fill-opacity="0.5019608" height="1" width="1" x="8" y="1"/>
<rect fill="red" fill-opacity="1" height="1" width="1" x="8" y="2"/>
<rect fill="red" fill-opacity="1" height="1" width="1" x="8" y="3"/>
<rect fill="red" fill-opacity="0.5019608" height="1" width="1" x="9" y="0"/>
<rect fill="red" fill-opacity="1" height="1" width="1" x="9" y="1"/>
<rect fill="red" fill-opacity="1" height="1" width="1" x="9" y="2"/>
<rect fill="red" fill-opacity="1" height="1" width="1" x="9" y="3"/>
<rect fill="red" fill-opacity="0" height="1" width="1" x="10" y="0"/>
<rect fill="red" fill-opacity="0" height="1" width="1" x="10" y="1"/>
<rect fill="red" fill-opacity="0" height="1" width="1" x="10" y="2"/>
<rect fill="red" fill-opacity="0" height="1" width="1" x="10" y="3"/>
<rect fill="red" fill-opacity="0" height="1" width="1" x="11" y="0"/>
<rect fill="red" fill-opacity="0" height="1" width="1" x="11" y="1"/>
<rect fill="red" fill-opacity="0" height="1" width="1" x="11" y="2"/>
<rect fill="red" fill-opacity="0" height="1" width="1" x="11" y="3"/>
<rect fill="red" fill-opacity="0" height="1" width="1" x="0" y="4"/>
<rect fill="red" fill-opacity="0" height="1" width="1" x="0" y="5"/>
<rect fill="red" fill-opacity="0" height="1" width="1" x="0" y="6"/>
<rect fill="red" fill-opacity="0" height="1" width="1" x="0" y="7"/>
<rect fill="red" fill-opacity="0" height="1" width="1" x="1" y="4"/>
<rect fill="red" fill-opacity="0" height="1" width="1" x="1" y="5"/>
<rect fill="red" fill-opacity="0" height="1" width="1" x="1" y="6"/>
<rect fill="red" fill-opacity="0" height="1" width="1" x="1" y="7"/>
<rect fill="red" fill-opacity="0" height="1" width="1" x="2" y="4"/>
<rect fill="red" fill-opacity="0" height="1" width="1" x="2" y="5"/>
<rect fill="red" fill-opacity="0" height="1" width="1" x="2" y="6"/>
<rect fill="red" fill-opacity="0.5019608" height="1" width="1" x="2" y="7"/>
<rect fill="red" fill-opacity="0" height="1" width="1" x="3" y="4"/>
<rect fill="red" fill-opacity="0" height="1" width="1" x="3" y="5"/>
<rect fill="red" fill-opacity="0.5019608" height="1" width="1" x="3" y="6"/>
<rect fill="red" fill-opacity="1" height="1" width="1" x="3" y="7"/>
<rect fill="red" fill-opacity="0" height="1" width="1" x="4" y="4"/>
<rect fill="red" fill-opacity="0.5019608" height="1" width="1" x="4" y="5"/>
<rect fill="red" fill-opacity="1" height="1" width="1" x="4" y="6"/>
<rect fill="red" fill-opacity="1" height="1" width="1" x="4" y="7"/>
<rect fill="red" fill-opacity="0.5019608" height="1" width="1" x="5" y="4"/>
<rect fill="red" fill-opacity="1" height="1" width="1" x="5" y="5"/>
<rect fill="red" fill-opacity="1" height="1" width="1" x="5" y="6"/>
<rect fill="red" fill-opacity="1" height="1" width="1" x="5" y="7"/>
<rect fill="red" fill-opacity="1" height="1" width="1" x="6" y="4"/>
<rect fill="red" fill-opacity="1" height="1" width="1" x="6" y="5"/>
<rect fill="red" fill-opacity="1" height="1" width="1" x="6" y="6"/>
<rect fill="red" fill-opacity="1" height="1" width="1" x="6" y="7"/>
<rect fill="red" fill-opacity="1" height="1" width="1" x="7" y="4"/>
<rect fill="red" fill-opacity="1" height="1" width="1" x="7" y="5"/>
<rect fill="red" fill-opacity="1" height="1" width="1" x="7" y="6"/>
<rect fill="red" fill-opacity="1" height="1" width="1" x="7" y="7"/>
<rect fill="red" fill-opacity="1" height="1" width="1" x="8" y="4"/>
<rect fill="red" fill-opacity="1" height="1" width="1" x="8" y="5"/>
<rect fill="red" fill-opacity="1" height="1" width="1" x="8" y="6"/>
<rect fill="red" fill-opacity="1" height="1" width="1" x="8" y="7"/>
<rect fill="red" fill-opacity="1" height="1" width="1" x="9" y="4"/>
<rect fill="red" fill-opacity="1" height="1" width="1" x="9" y="5"/>
<rect fill="red" fill-opacity="1" height="1" width="1" x="9" y="6"/>
<rect fill="red" fill-opacity="1" height="1" width="1" x="9" y="7"/>
<rect fill="red" fill-opacity="0" height="1" width="1" x="10" y="4"/>
<rect fill="red" fill-opacity="0" height="1" width="1" x="10" y="5"/>
<rect fill="red" fill-opacity="0" height="1" width="1" x="10" y="6"/>
<rect fill="red" fill-opacity="0" height="1" width="1" x="10" y="7"/>
<rect fill="red" fill-opacity="0" height="1" width="1" x="11" y="4"/>
<rect fill="red" fill-opacity="0" height="1" width="1" x="11" y="5"/>
<rect fill="red" fill-opacity="0" height="1" width="1" x="11" y="6"/>
<rect fill="red" fill-opacity="0" height="1" width="1" x="11" y="7"/>
<rect fill="red" fill-opacity="0" height="1" width="1" x="0" y="8"/>
<rect fill="red" fill-opacity="0.5019608" height="1" width="1" x="0" y="9"/>
<rect fill="red" fill-opacity="0" height="1" width="1" x="0" y="10"/>
<rect fill="red" fill-opacity="0" height="1" width="1" x="0" y="11"/>
<rect fill="red" fill-opacity="0.5019608" height="1" width="1" x="1" y="8"/>
<rect fill="red" fill-opacity="1" height="1" width="1" x="1" y="9"/>
<rect fill="red" fill-opacity="0" height="1" width="1" x="1" y="10"/>
<rect fill="red" fill-opacity="0" height="1" width="1" x="1" y="11"/>
<rect fill="red" fill-opacity="1" height="1" width="1" x="2" y="8"/>
<rect fill="red" fill-opacity="1" height="1" width="1" x="2" y="9"/>
<rect fill="red" fill-opacity="0" height="1" width="1" x="2" y="10"/>
<rect fill="red" fill-opacity="0" height="1" width="1" x="2" y="11"/>
<rect fill="red" fill-opacity="1" height="1" width="1" x="3" y="8"/>
<rect fill="red" fill-opacity="1" height="1" width="1" x="3" y="9"/>
<rect fill="red" fill-opacity="0" height="1" width="1" x="3" y="10"/>
<rect fill="red" fill-opacity="0" height="1" width="1" x="3" y="11"/>
<rect fill="red" fill-opacity="1" height="1" width="1" x="4" y="8"/>
<rect fill="red" fill-opacity="1" height="1" width="1" x="4" y="9"/>
<rect fill="red" fill-opacity="0" height="1" width="1" x="4" y="10"/>
<rect fill="red" fill-opacity="0" height="1" width="1" x="4" y="11"/>
<rect fill="red" fill-opacity="1" height="1" width="1" x="5" y="8"/>
<rect fill="red" fill-opacity="1" height="1" width="1" x="5" y="9"/>
<rect fill="red" fill-opacity="0" height="1" width="1" x="5" y="10"/>
<rect fill="red" fill-opacity="0" height="1" width="1" x="5" y="11"/>
<rect fill="red" fill-opacity="1" height="1" width="1" x="6" y="8"/>
<rect fill="red" fill-opacity="1" height="1" width="1" x="6" y="9"/>
<rect fill="red" fill-opacity="0" height="1" width="1" x="6" y="10"/>
<rect fill="red" fill-opacity="0" height="1" width="1" x="6" y="11"/>
<rect fill="red" fill-opacity="1" height="1" width="1" x="7" y="8"/>
<rect fill="red" fill-opacity="1" height="1" width="1" x="7" y="9"/>
<rect fill="red" fill-opacity="0" height="1" width="1" x="7" y="10"/>
<rect fill="red" fill-opacity="0" height="1" width="1" x="7" y="11"/>
<rect fill="red" fill-opacity="1" height="1" width="1" x="8" y="8"/>
<rect fill="red" fill-opacity="1" height="1" width="1" x="8" y="9"/>
<rect fill="red" fill-opacity="0" height="1" width="1" x="8" y="10"/>
<rect fill="red" fill-opacity="0" height="1" width="1" x="8" y="11"/>
<rect fill="red" fill-opacity="1" height="1" width="1" x="9" y="8"/>
<rect fill="red" fill-opacity="1" height="1" width="1" x="9" y="9"/>
<rect fill="red" fill-opacity="0" height="1" width="1" x="9" y="10"/>
<rect fill="red" fill-opacity="0" height="1" width="1" x="9" y="11"/>
<rect fill="red" fill-opacity="0" height="1" width="1" x="10" y="8"/>
<rect fill="red" fill-opacity="0" height="1" width="1" x="10" y="9"/>
<rect fill="red" fill-opacity="0" height="1" width="1" x="10" y="10"/>
<rect fill="red" fill-opacity="0" height="1" width="1" x="10" y="11"/>
<rect fill="red" fill-opacity="0" height="1" width="1" x="11" y="8"/>
<rect fill="red" fill-opacity="0" height="1" width="1" x="11" y="9"/>
<rect fill="red" fill-opacity="0" height="1" width="1" x="11" y="10"/>
<rect fill="red" fill-opacity="0" height="1" width="1" x="11" y="11"/>
</svg>